<?xml version="1.0" encoding="UTF-8" standalone="no"?><!DOCTYPE svg PUBLIC "-//W3C//DTD SVG 1.1//EN" "http://www.w3.org/Graphics/SVG/1.1/DTD/svg11.dtd"><svg width="100%" height="100%" viewBox="0 0 24651 16966" version="1.1" xmlns="http://www.w3.org/2000/svg" xmlns:xlink="http://www.w3.org/1999/xlink" xml:space="preserve" xmlns:serif="http://www.serif.com/" style="fill-rule:evenodd;clip-rule:evenodd;stroke-linejoin:round;stroke-miterlimit:2;"><path d="M12710,12511.7c-11.633,-10.242 -34.375,-23.438 -34.721,-44.096c-13.658,-896.413 -16.033,-1468.63 -7.121,-1716.67c5.209,-143.75 6.713,-265.858 4.517,-366.321c-3.475,-164.583 -5.208,-247.396 -5.208,-248.437c-0.696,-2769.56 -0.696,-5539.17 -0,-8308.83c0.171,-200 11.283,-477.083 5.033,-716.491c-0.696,-27.429 10.763,-72.571 29.863,-93.054c331.075,-354.688 593.92,-587.33 1038.89,-1003.12c18.75,-17.48 41.954,-19.33 69.617,-5.559c4.746,2.317 7.754,5.963 9.029,10.938c8.679,32.987 -0.346,68.579 -0.696,93.404c-11.571,659.492 -14.35,1319.04 -8.333,1978.65c-0,10.762 6.25,21.008 6.25,31.25c-0,411.979 -6.075,823.612 -6.596,1235.76c-0.175,111.979 11.458,377.259 5.904,565.8c-11.979,412.5 -7.467,826.388 -5.383,1238.89c4.05,814.354 6.016,1628.76 5.904,2443.23c-0.117,470.95 0.171,1741.5 0.867,3811.63c-0,25.521 -7.813,52.95 -7.988,80.554c-0.112,6.138 -2.312,11.4 -6.596,15.8c-36.458,37.846 -69.446,84.03 -104.862,118.75c-254.396,249.421 -509.663,498.034 -765.796,745.834c-0.463,0.346 -19.967,20.658 -58.508,60.937c-34.2,35.592 -119.792,110.763 -164.063,71.179l0,-0.02Z" style="fill:#fff;fill-rule:nonzero;"/><path d="M14292.6,11047.6c-22.567,23.092 -33.333,47.05 -50.346,73.959c-3.358,5.208 -8.158,7.291 -14.408,6.25l-50,-8.159c-6.888,-1.104 -11.996,-7.179 -11.979,-14.237c-0.463,-347.8 -0.409,-693.113 0.171,-1035.94c0.175,-30.554 -7.813,-64.408 -7.813,-95.312c-0.112,-477.546 -0.112,-955.034 0,-1432.46c0,-31.6 7.642,-63.716 7.642,-92.708c-0,-592.246 -0.117,-1184.43 -0.35,-1776.56c-0,-43.058 -4.859,-148.266 -2.429,-221.875c1.387,-42.479 2.083,-71.991 2.083,-88.541c0.867,-703.475 9.2,-1407.99 -6.425,-2111.29c-3.471,-153.646 6.946,-327.254 7.121,-459.2c0.462,-475.346 0.462,-950.696 -0,-1426.04c-0,-60.417 0.521,-84.55 44.441,-130.034c302.317,-313.658 612.155,-619.621 929.517,-917.883c43.921,-41.146 84.375,-84.2 154.167,-64.408c4.975,1.387 7.521,4.745 7.637,10.066c2.084,160.417 -6.596,365.454 -7.812,480.559c-2.317,234.72 -1.1,469.441 3.646,704.166c0.462,26.154 0.116,52.254 -1.042,78.296c-1.621,35.188 -2.429,61.171 -2.429,77.954c-0.117,1982.06 -0.175,3964.12 -0.175,5946.17c-0,16.321 6.946,38.021 6.946,58.158l-0,1397.75c-0,5.9 -2.084,10.879 -6.25,14.929c-60.417,59.375 -114.063,130.034 -169.446,184.896c-279.863,278.125 -557.35,558.621 -832.467,841.492l0,0.012Z" style="fill:#fff;fill-rule:nonzero;"/><path d="M9301.96,9847.98c61.458,9.142 155.396,33.017 142.317,21.442c-4.05,-3.471 -6.434,21.721 -6.434,16.396c1.042,-156.596 36.342,-2081.24 36.342,-2081.24l38.542,-34.55l6.075,0l35.937,35.071c0,-0 22.704,2068.7 26.7,2069.17c543.575,44.271 886.667,-383.234 959.238,-894.692c9.258,-65.162 13.308,-166.262 12.154,-303.3c-2.604,-324.304 10.587,-651.908 10.587,-972.221c0,-1478.24 -0.058,-2956.48 -0.17,-4434.71c-0,-47.571 122.395,-166.842 159.2,-202.083c300.462,-286.921 598.841,-575.984 895.137,-867.188c28.358,-27.896 60.996,-44.158 97.917,-48.787c0.925,-0.113 1.854,-0.171 2.783,-0.171c12.383,-0 22.571,10.187 22.571,22.571c-0,0.17 -0,0.345 -0.004,0.516c-7.988,305.904 -15.454,608.509 -15.454,916.321c-0.346,1749.3 -0.288,3498.67 0.175,5248.08c-0,239.93 7.812,542.709 -6.425,828.125c-17.359,351.563 -111.805,693.055 -301.042,988.192c-244.617,381.25 -623.263,686.288 -1065.28,805.904c-127.2,34.375 -256.25,59.492 -387.154,75.346c-148.959,17.883 -292.709,-4.687 -439.929,-29.687c-272.225,-46.18 -512.675,-167.709 -738.717,-320.659c-74.538,-50.346 -163.717,-123.725 -267.533,-220.137c-94.1,-87.5 -188.196,-174.829 -282.292,-261.979c-150.813,-139.584 -313.079,-264.18 -486.808,-373.788c-80.73,-51.042 -172.221,-75.171 -247.742,-129.512c-170.95,-123.38 -357.467,-240.338 -559.55,-350.867c-279.513,-153.125 -594.963,-275.696 -910.588,-304.167c-131.77,-11.808 -306.425,-29.341 -431.945,18.054c-26.967,10.184 -52.663,15.913 -77.084,17.188c-52.891,2.546 -175.696,30.671 -175.696,43.054c-1.387,596.992 -8.45,1702.33 -8.45,1702.33l-169.845,198.192c-0,-0 -34.896,-1615.45 -26.392,-1830.73c0.462,-13.192 -99.767,14.816 -99.65,26.391c2.196,300 -55.729,4827.96 -55.729,4827.96l-9.204,49.304l-26.221,21.529l-26.729,-26.042c-0,0 -73.321,-4348.42 -80.034,-4749.83c-0.116,-6.6 -3.3,-10.767 -9.55,-12.5c-16.321,-4.746 -33.796,-2.142 -52.429,7.813c-46.875,24.825 -22.225,54.512 -22.917,87.67c-7.062,368.867 -68.058,3839.41 -68.058,3839.41l-11.979,11.283l-44.617,0.346l-22.221,-22.221c0,0 -62.5,-3505.73 -57.987,-3751.91c0.029,-1.717 -0.213,-3.425 -0.708,-5.063c-2.605,-8.566 -96.342,50.663 -96.342,69.296c0.696,350.117 -59.2,3436.11 -59.2,3436.11l-17.013,15.971l-27.433,-1.734l-16.667,-17.708c0,-0 -59.545,-2896.01 -69.441,-3284.03c-0.192,-7.771 -6.634,-14.063 -14.409,-14.063c-3.437,0 -6.766,1.234 -9.379,3.471l-62.15,52.433c-4.862,4.167 -7.35,9.488 -7.466,15.971c-5.905,462.5 -51.388,2468.58 -51.388,2468.58l-22.05,20.488l-12.325,-1.217l-27.954,-28.817c-0,0 -49.479,-1918 -53.992,-2221.01c-0.346,-21.875 7.292,-48.612 -5.904,-73.783c-4.05,-7.871 -9.779,-9.317 -17.187,-4.342l-87.5,60.071c-6.05,4.208 -9.584,11.204 -9.375,18.575c3.82,163.196 -32.813,1749.3 -32.813,1749.3l-24.304,20.488l-30.904,-7.467l-24.304,-30.379l-28.646,-1622.57c-0.038,-1.063 -0.217,-2.117 -0.538,-3.133c-1.921,-6.088 -8.433,-9.538 -14.429,-7.65c-1.033,0.329 -2.017,0.8 -2.917,1.408l-121.004,79.167c-3.025,2.062 -4.796,5.47 -4.687,9.029c3.816,216.204 -22.396,1279.86 -22.396,1279.86l-15.625,18.579l-55.558,-35.766c-0,-0 -19.213,-896.817 -20.484,-1171.01c-0.016,-1.308 -0.208,-2.604 -0.566,-3.862c-2.192,-7.692 -10.25,-12.242 -17.85,-10.075c-1.28,0.362 -2.505,0.904 -3.634,1.608l-119.096,72.225c-11.087,6.746 -18.175,18.509 -18.925,31.421c-38.02,568.75 -19.27,1710.77 -19.27,1710.77l-32.117,27.083l-38.892,-82.812c0,-0 -26.675,-1332.64 -35.241,-1559.38c-0.117,-3.705 0.462,-7.234 1.737,-10.592c2.663,-6.483 4.108,-9.838 4.338,-10.071c1.625,-2.479 2.5,-5.292 2.541,-8.162c0.129,-9.142 -8.229,-16.784 -18.516,-16.925c-3.209,-0.046 -6.38,0.641 -9.196,2l-130.038,63.366c-6.7,3.321 -11,10.171 -11.108,17.709c-0.521,126.387 0.867,887.845 0.867,887.845l-7.638,10.071l-82.121,-80.383c0,-0 -1.446,-511.804 -10.937,-783.333c-0.463,-14.005 -7.059,-18.113 -19.792,-12.325c-44.675,20.254 -91.55,33.508 -140.625,39.758c-5.175,0.604 -9.137,4.942 -9.2,10.067l-15.104,576.737l-16.321,15.8l-30.9,-0.35l-17.362,-17.012l-15.8,-543.055c-0.167,-5.691 -4.892,-10.279 -10.584,-10.279c-0.291,0 -0.583,0.013 -0.875,0.034l-159.721,11.979c-9.208,0.716 -16.425,8.387 -16.491,17.537c-0.579,281.017 -7.642,832.292 -7.642,832.292l-2.254,56.596l-13.717,12.675l-35.937,-0.175l-10.938,-10.763l-11.633,-864.933c-0.204,-14.7 -10.538,-27.421 -24.825,-30.554c-43.404,-9.259 -86.342,-7.929 -128.821,3.991c-5.208,1.505 -8.158,4.921 -8.854,10.246c-7.117,59.2 -11.458,393.921 -11.458,393.921l-7.813,13.717l-107.983,-63.367c-0,0 1.562,-220.546 1.212,-330.729c0,-6.483 -3.296,-9.55 -9.896,-9.204c-52.429,2.779 -101.791,-8.159 -148.087,-32.813c-0.55,-0.287 -1.133,-0.5 -1.738,-0.633c-3.629,-0.796 -7.254,1.454 -8.029,4.992c-0.137,0.62 -0.179,1.258 -0.129,1.891c3.354,49.654 -3.821,226.913 -49.133,233.854c-83.854,12.675 -88.367,-236.458 -88.367,-236.458l-0.142,-0.475l-10.695,-5.242l-0.45,0.163l-106.075,-0.696l-4.346,-0.871l-11.284,11.288l0.005,0.35l5.208,115.275l-0.017,4.037l-45.371,41.159l-4.091,-0.405l-40.279,-5.9l-44.617,-55.729c-0,0 -0.463,-86.979 -11.804,-129.341c-1.504,-5.671 -5.209,-8.855 -11.113,-9.55l-98.262,-11.109c-3.475,-0.462 -5.5,1.1 -6.079,4.688l-18.055,126.387l-10.591,10.763l-92.879,-13.367l-10.246,-14.237l-12.671,-125.521c-1.392,-13.771 -9.029,-21.413 -22.917,-22.917l-71.354,-7.462c-17.596,-1.855 -27.083,6.016 -28.475,23.608c-1.621,21.875 -21.004,59.029 -21.004,59.029l-14.758,6.425l-97.221,-14.412c-0,-0 -16.321,-8.667 -17.538,-17.709l-11.283,-81.596c-0.721,-5.058 -5.242,-8.737 -10.242,-8.333c-94.271,6.075 -72.158,-59.708 -74.241,-118.737c-0.484,-12.63 3.32,-47.63 15.733,-50.013l68.054,-13.196c6.021,-1.154 9.667,-4.687 10.938,-10.587c7.987,-36.459 21.92,-107.496 21.92,-107.496c0,-0 88.438,-22.292 106.392,13c11.254,22.121 5.821,65.121 6.758,84.25c0.346,8.45 4.805,12.733 13.367,12.85l122.05,1.212c20.75,-49.32 28.713,-194.254 28.713,-194.254l95.175,-1.062c-0,-0 13.495,183.916 24.725,184.033l90.275,0.346c10.995,0.117 17.595,-5.267 19.791,-16.146l10.992,-181.021l122.517,-10.125c-0,0 10.204,198.988 12.287,198.792c0.013,-0.004 0.025,-0.004 0.038,-0.004l113.541,-11.113c4.534,-0.358 8.092,-4.221 8.163,-8.854l9.25,-768.575l133.458,-12.329c0,-0 1.329,549.829 0.521,773.092l-0,0.033c-0,2.283 1.879,4.167 4.167,4.167c0.17,-0 0.345,-0.013 0.52,-0.034l138.021,-13.716c2.429,-0.23 3.817,-1.563 4.167,-3.992c6.829,-59.838 25.867,-703.646 25.867,-703.646l96.904,-9.321c-0,0 22.021,612.213 6.741,685.017c-1.387,6.942 1.446,10.417 8.509,10.417l132.116,0.691c7.059,0 13.021,-2.604 17.884,-7.812c12.962,-14.004 32.462,-1305.21 32.462,-1305.21l12.154,-11.979l32.813,0.35l37.742,11.979c-0,0 -0.242,1168.75 3.058,1235.76c0.229,4.629 2.546,6.308 6.942,5.033l130.037,-36.979c9.625,-2.771 16.304,-11.583 16.317,-21.525l20.591,-748.492l0.005,-0.091l23.062,-11.317l0.092,0.004l49.479,1.734l12.329,12.85l-1.562,678.991c-0,21.067 9.2,26.563 27.604,16.492l105.379,-57.638c19.171,-10.454 32.171,-29.47 34.896,-51.041c23.958,-185.996 32.083,-1184.01 32.083,-1184.01l41.183,-29.187l8.159,1.562l47.804,22.03l-9.263,1126.93c0.055,6.533 5.446,11.879 11.98,11.879c3.191,-0 6.258,-1.275 8.508,-3.546c-0,0 162.037,-150.404 162.5,-174.479c5.437,-366.088 11.458,-1599.83 11.458,-1599.83l27.775,-43.75l7.467,-2.95l40.129,25.358l6.921,1569.43c0.079,6.133 5.146,11.137 11.283,11.137c2.829,0 5.559,-1.062 7.638,-2.979l145.312,-133.679c9.7,-8.917 15.088,-21.65 14.759,-34.896c-5.034,-155.038 14.758,-1572.23 14.758,-1572.23l20.833,-21.7l23.263,0.175l43.812,17.525c0,-0 1.904,1243.93 1.675,1503.31c-0.016,2.575 1.309,4.954 3.471,6.25c4.629,3.009 9.2,1.675 13.717,-3.996c41.087,-50.345 86.921,-96.062 137.5,-137.15c2.975,-2.416 4.754,-5.97 4.858,-9.725l3.746,-1238.52l34.796,-15.821l78.566,25.304c0,0 -4.316,839.279 1.121,1102.12c0.046,2.483 0.588,4.929 1.592,7.196c4.167,9.404 143.029,-112.058 143.029,-112.058c2.679,-2.784 4.225,-6.438 4.338,-10.242c14.7,-389.35 5.904,-1711.46 5.904,-1711.46l7.637,-15.625l125,4.304c0,-0 4.204,1635.14 4.854,1636.98c3.225,9.162 111.813,-90.067 111.813,-90.067c3.962,-3.079 6.325,-7.741 6.425,-12.675c9.608,-256.946 7.737,-2433.15 7.737,-2433.15l47.296,-22.237l21.184,2.604l54.425,16.996c-0,-0 4.025,2222.94 1.941,2356.39c-0.004,0.091 135.821,-100.992 135.821,-100.992c4.746,-3.817 7.233,-8.796 7.463,-14.929c10.591,-271.875 20.595,-2392.53 20.595,-2392.53l48.505,-24.484l23.958,0l51.979,22.559c0,-0 4.154,1844.69 16.421,2299.32c0.387,11.688 146.679,-62.5 147.721,-68.404c7.062,-39.467 16.375,-2778.17 16.375,-2778.17l57.208,-36.083l1.092,0.017l12.154,0.35l25.325,15.862c-0,0 39.2,2142.99 47.767,2738.47c0.112,7.988 4.108,11.113 11.979,9.375l87.846,-19.096c5.554,-1.275 8.391,-4.746 8.508,-10.416c8.333,-244.33 58.333,-3615.11 58.333,-3615.11l30.554,-33.158l19.967,-1.392l30.033,28.3c0,0 48.671,3041.03 55.034,3553.99c0.008,0.675 0.058,1.35 0.154,2.017c1.183,8.296 8.904,14.166 17.108,12.996c0.679,-0.096 1.35,-0.238 2.009,-0.43l89.237,-24.825c5.788,-1.62 8.679,-5.383 8.679,-11.283c4.863,-512.733 59.204,-3639.41 59.204,-3639.41l0,-0.084l11.284,-11.287l1.387,0.087l41.146,5.384l12.154,10.587c0,0 61.921,3553.7 55.209,3590.62c-2.663,14.933 3.587,22.167 18.75,21.704l93.575,-3.125c6.254,-0.187 11.291,-5.458 11.287,-11.808c-2.083,-419.442 68.054,-4181.42 68.054,-4181.42l0,-0.033l17.363,-17.363l1.041,0.034l6.942,0.346l25.35,26.562l59.375,4172.75c0,2.083 1.1,3.183 3.296,3.296l114.412,2.258c2.663,0.117 3.992,-1.216 3.992,-3.991c2.779,-337.617 52.779,-4725.5 52.779,-4725.5l7.638,-15.28l56.946,-1.041l6.595,13.196c0,-0 67.246,4565.08 68.405,4733.5c-0,7.641 3.816,11.866 11.458,12.675l84.025,9.375c8.104,0.925 12.271,-2.721 12.5,-10.938c10.187,-610.417 65.104,-3853.65 65.104,-3853.65l12.329,-12.846l45.834,-1.391l8.854,8.508c-0,0 53.933,3804.75 58.333,3886.11c0.579,11.804 6.538,19.329 17.879,22.566l86.459,25.35c1.241,0.354 2.529,0.534 3.82,0.534c7.621,-0 13.888,-6.271 13.888,-13.888l-0,-0.017c-0.925,-378.587 68.579,-3147.57 68.579,-3147.57l18.921,-18.404l33.854,1.216l17.538,18.054c-0,0 43.054,2976.39 52.429,3214.58c0.116,5.787 2.604,10.3 7.466,13.541l95.313,63.717c2.533,1.725 5.529,2.646 8.596,2.646c8.379,-0 15.275,-6.896 15.275,-15.279c-0,-0.946 -0.088,-1.888 -0.263,-2.821c-13.712,-74.825 44.967,-2566.84 44.967,-2566.84l9.2,-13.02l46.529,13.02l7.467,16.492l71.004,2672.22c0.096,5.075 3.142,9.679 7.812,11.808l91.321,42.359c8.796,4.054 13.425,1.216 13.888,-8.505c12.85,-274.829 66.841,-3456.08 66.841,-3456.08l28.821,-26.212l9.375,0.866l19.442,23.438c-0,-0 27.071,3203.25 39.683,3529.52c1.404,35.329 130.225,108.791 130.459,101.387c17.012,-652.604 68.4,-2913.89 68.4,-2913.89l17.537,-17.533l29.688,-0.346l18.75,18.054c-0,0 35.416,2504.11 56.595,3044.97c0.225,5.596 2.975,10.779 7.467,14.063l99.479,74.479c1.121,0.858 2.375,1.533 3.709,1.996c6.929,2.4 14.633,-1.405 17.062,-8.421c0.483,-1.4 0.742,-2.863 0.754,-4.342c-1.504,-494.442 53.646,-2410.59 53.646,-2410.59l19.767,-18.792l5.929,0.908l7.987,2.604l30.9,42.188c0,-0 50.292,2158.05 64.413,2507.81c0.229,6.596 2.892,12.096 7.983,16.492l89.934,77.954c0.595,0.504 1.275,0.904 2.008,1.188c3.471,1.325 7.387,-0.367 8.679,-3.75c0.279,-0.734 0.421,-1.513 0.421,-2.3l31.25,-1582.12l13.542,-16.496l96.704,9.029l8.158,12.325c0,0 6.771,1111.4 36.633,1666.5c1.621,28.471 9.546,51.563 23.784,69.271c19.329,23.842 99.504,81.742 99.504,65.542c1.158,-484.029 43.379,-2709.99 43.379,-2709.99l22.917,-22.396l27.775,0.521l18.925,18.75l53.991,2794.79c0,5.442 2.434,9.492 7.292,12.154l121.875,65.275c1.596,0.883 3.388,1.346 5.213,1.346c5.904,-0 10.762,-4.858 10.762,-10.763l0,-0.129c0.521,-177.604 33.333,-2259.03 33.333,-2259.03l25.346,-26.908l27.429,-1.563l19.446,19.442l8.679,97.396c0,-0 44.792,1792.42 45.142,2247.4c0.017,12.02 7.133,22.9 18.054,27.604l118.75,51.216c7.988,3.471 12.038,0.867 12.154,-7.812c2.663,-370.833 34.375,-2063.02 34.375,-2063.02l27.95,-28.471l29.342,0.171l32.117,32.292c-0,-0 22.916,1840.8 34.375,2093.58c0.696,15.392 8.621,24.246 23.783,26.562l0,-0.029Z" style="fill:#fff;fill-rule:nonzero;"/><path d="M18619,8313.56c-0.163,0.012 58.679,-5138 58.679,-5138c0.117,-16.667 8.567,-24.888 25.346,-24.655l10.591,0c14.059,0.188 25.525,11.888 25.521,26.042c-0.808,861.113 81.259,5116 66.079,5117.46l-186.216,19.163l-0,-0.008Z" style="fill:#fff;fill-rule:nonzero;"/><path d="M18961.2,8282.19c-1.85,-0.105 -3.404,-15.896 -4.695,-45.492c-19.209,-439.604 19.408,-3924.59 17.887,-4279.5l0,-0.175c0,-14.667 12.071,-26.738 26.738,-26.738c0.116,0 0.233,0 0.345,0.005l6.771,0.17c0.35,0.005 0.7,0.013 1.046,0.03c15.033,0.708 26.817,13.741 26.1,28.866c-0.012,0.321 -0.033,0.646 -0.062,0.967c-11.459,143.229 75.675,4317.96 70.116,4319.12c-37.037,6.942 -102.116,4.942 -144.246,2.742Z" style="fill:#fff;fill-rule:nonzero;"/><path d="M18352.8,8352.85c-29.05,4.979 14.821,-3813.09 22.808,-4104.18c0.233,-7.175 3.933,-10.587 11.113,-10.241l30.033,1.216c6.887,0.371 12.271,6.3 11.979,13.192c-7.467,153.3 42.071,4083.97 36.283,4085.59c-28.933,8.1 -69.737,7.241 -112.216,14.416Z" style="fill:#fff;fill-rule:nonzero;"/><path d="M21249.9,9389.98c1.291,2.442 3.837,3.971 6.6,3.971c4.087,0 7.454,-3.354 7.462,-7.442l2.084,-921.354l24.133,-23.962l0.346,0.004l26.216,0.692l25.696,26.041c0,0 6.075,641.725 15.45,963.371c2.779,91.667 154.975,197.046 171.179,218.921c0.834,1.096 1.909,1.987 3.138,2.617c4.412,2.245 9.858,0.537 12.062,-3.792c0.634,-1.246 0.959,-2.629 0.946,-4.033l3.475,-1125.35l12.671,-12.5l46.008,0.696l11.98,11.979l9.375,1213.54c0.112,6.163 2.983,11.963 7.812,15.796l181.596,143.404c1.358,1.021 3.008,1.575 4.704,1.575c4.096,0 7.529,-3.216 7.796,-7.304c0.696,-18.75 -6.596,-39.583 -6.25,-57.466c4.979,-310.88 4.342,-923.959 4.342,-923.959l28.125,-28.646l9.895,-0.17l36.634,35.762l6.596,1009.38c-0,5.554 1.908,10.417 5.729,14.583c47.337,49.767 99.883,92.363 157.637,127.78c20.142,12.266 30.267,6.595 30.384,-17.017l7.466,-824.479l32.292,-26.042l26.562,5.729l25.171,30.729l3.3,856.6c0.1,20.288 11.313,38.971 29.167,48.609l142.708,77.433c1.971,1.079 4.179,1.642 6.425,1.642c7.296,-0 13.317,-5.975 13.367,-13.275l0.175,-742.709l26.387,-23.958l28.821,2.604l27.775,30.554c0,0 18.579,575.35 17.188,733.509c-0.079,12.037 8.204,22.571 19.791,25.175l132.467,30.729c18.517,4.279 27.892,-3.067 28.125,-22.05l3.3,-358.158l29.338,-28.971l4.341,0.325l11.979,1.908l38.888,44.967l1.912,350c0.13,15.162 11.525,28.054 26.563,30.033l112.5,14.583c15.854,2.084 23.725,-4.862 23.608,-20.833l0,-194.967l41.146,-42.358l34.896,-0.871l35.417,33.334l6.6,231.77c0.07,4.105 3.295,7.555 7.462,7.988l144.1,11.979c0.171,0.017 0.346,0.025 0.521,0.025c3.242,0 5.904,-2.667 5.904,-5.904c0,-0.067 0,-0.133 -0.004,-0.196l-5.554,-166.667l53.125,-54.341l13.541,0.175l51.388,49.479l10.071,181.075c0.546,10.617 9.337,19.104 19.966,19.271l98.609,1.908c13.196,0.35 20.95,-6.017 23.266,-19.096l23.784,-132.466l71.241,-15.471c0,-0 36.917,113.908 39.871,154.533c0.463,7.642 4.338,12.675 11.629,15.104l43.75,14.238c5.209,1.737 9.784,4.629 13.717,8.679c28.933,29.862 31.771,63.137 8.508,99.829c-3.454,5.471 -8.854,9.442 -15.104,11.108l-61.458,16.321c-4.508,1.263 -7.854,5.088 -8.508,9.721l-7.292,55.208l-11.113,12.85c0,0 -108.333,6.596 -102.429,-50c0.063,-0.625 0.096,-1.254 0.096,-1.883c0,-10.287 -8.467,-18.75 -18.75,-18.75c-1.675,0 -3.342,0.225 -4.958,0.667l-99.129,26.562c-4.071,1.125 -7.046,4.654 -7.467,8.854c-4.513,43.75 -61.633,105.555 -61.633,105.555c-0,-0 -74.942,-32.871 -61.63,-88.888c0.121,-0.533 0.188,-1.079 0.205,-1.625c0.137,-4.567 -3.434,-8.437 -7.909,-8.571c-0.558,-0.016 -1.121,0.025 -1.671,0.125l-145.833,25.35c-6.021,1.042 -9.262,4.571 -9.725,10.588c-4.687,59.896 -87.846,137.329 -87.846,137.329c0,-0 -37.325,-42.017 -33.508,-104.517c1.042,-16.55 -6.713,-24.421 -23.263,-23.608l-101.216,4.858c-16.779,0.813 -24.071,9.55 -21.875,26.217c10.996,87.383 -64.234,138.542 -64.234,138.542c0,-0 -49.133,-94.967 -53.82,-138.542c-0.696,-5.554 -3.821,-8.45 -9.375,-8.679l-142.534,-5.729c-3.821,-0.234 -5.787,1.62 -5.904,5.554l-1.562,151.387l-43.75,55.209l-36.98,9.204l-48.437,-38.021l0.175,-175.35c-0,-5.9 -2.896,-9.546 -8.683,-10.938c-32.463,-7.812 -131.596,0.521 -153.125,-3.295c-0.438,-0.084 -0.88,-0.146 -1.321,-0.188c-8.346,-0.787 -15.867,5.508 -16.663,13.946c-0.046,0.446 -0.066,0.896 -0.071,1.346l-2.95,440.104l-32.12,31.942l-24.48,0.175l-26.041,-25.521l-8.679,-481.596c-0.117,-6.829 -3.53,-10.825 -10.242,-11.979c-50.35,-9.146 -99.25,-24.25 -146.704,-45.313c-23.842,-10.533 -35.529,-2.837 -35.067,23.088l8.333,552.604l0,0.337l-27.429,27.43l-6.079,-0.684l-12.5,-2.95l-39.929,-47.221l-34.204,-588.541c-0.346,-5.904 -3.125,-10.246 -8.334,-13.021l-142.533,-74.133c-0.983,-0.509 -2.025,-0.896 -3.096,-1.163c-7.491,-1.854 -15.158,2.708 -16.987,10.104c-0.275,1.109 -0.409,2.242 -0.404,3.384c-0.113,245.604 11.633,1109.89 11.633,1109.89l-12.675,10.246l-43.4,-9.204l-12.154,-10.242c-0,0 -38.775,-767.65 -39.929,-1149.48c-0,-6.133 -2.78,-10.65 -8.334,-13.541l-142.537,-74.655c-2.088,-1.091 -4.413,-1.666 -6.771,-1.666c-7.971,-0 -14.546,6.541 -14.583,14.516l0.35,1486.63l-21.705,17.362l-39.062,-8.679l-18.921,-23.267l-34.55,-1566.15c-0.346,-17.358 -7.987,-30.437 -22.917,-39.233l-91.145,-54.167c-15.625,-9.262 -23.496,-4.804 -23.613,13.367c-0.925,138.079 -25.867,1322.57 -25.867,1322.57l-0.166,2.575l-22.946,17.892l-2.583,-0.505l-25.346,-6.77l-26.388,-31.942c0,-0 -41.204,-937.5 -32.291,-1406.95c0.112,-6.367 -2.492,-11.283 -7.813,-14.758c0,-0 -85.879,-99.538 -111.458,-121.875c-1.259,-1.075 -2.863,-1.671 -4.521,-1.671c-3.717,-0 -6.813,2.992 -6.938,6.708c-5.441,328.354 -40.454,2379.17 -40.454,2379.17l-9.721,10.242l-36.633,0.175l-0.35,-0l-32.987,-33.509l0.004,-0.346c-0,0 -43.459,-2427.6 -41.146,-2444.97c5.904,-46.354 -47.567,-90.45 -82.983,-103.992c-7.642,-2.896 -11.575,-0.233 -11.809,7.983c-10.996,418.521 -54.337,2831.95 -54.337,2831.95l-0,0.034l-10.938,10.937l-0.871,-0.033l-47.566,-4.513l-12.329,-13.891c-0,-0 -61.05,-2642.88 -56.771,-2962.67c0.116,-5.904 -2.604,-10.071 -8.159,-12.5l-75.866,-33.684c-7.179,-3.237 -10.879,-0.866 -11.113,7.121c-8.796,285.067 -63.716,3819.27 -63.716,3819.27l-8.505,69.792l-12.154,10.241l-38.716,0.521l-11.284,-11.458l10.592,-132.813c-0,0 -73.9,-3422.92 -72.05,-3888.2c-0,-3.238 -1.504,-5.496 -4.513,-6.771l-99.654,-43.4c-0.279,-0.1 -0.571,-0.15 -0.866,-0.15c-1.421,-0 -2.592,1.158 -2.605,2.579c-0.35,470.137 -49.133,3872.92 -49.133,3872.92l-21.875,24.825l-23.262,2.954l-27.605,-24.309c0,0 -75.175,-3439.23 -72.745,-3916.32c0.116,-14.354 -6.25,-24.713 -19.096,-31.079l-73.784,-36.805c-14.354,-7.175 -19.329,-3.008 -14.933,12.5c13.021,46.18 -57.292,4486.29 -57.292,4486.29l-23.783,24.654l-21.875,0.696l-0.096,0l-22.821,-21.787l0,-0.088c0,0 -67.362,-4126.39 -79.862,-4536.12c-0.229,-7.987 -4.225,-12.787 -11.979,-14.408l-65.625,-13.717c-9.838,-2.083 -14.754,1.908 -14.754,11.979c8.333,868.054 -64.584,5337 -64.584,5337l-5.208,45.488l5.729,62.5l-9.204,557.462l-11.804,11.288l-38.196,-0.871l-12.671,-13.021c0,0 -62.558,-5667.46 -67.883,-5986.46c-0.234,-9.259 -4.975,-13.946 -14.238,-14.063l-64.929,-0.691c-10.183,-0.117 -15.279,4.916 -15.279,15.104c-1.042,525.691 -56.421,5533.83 -56.421,5533.83l-32.987,23.088l-6.771,-2.43l-33.159,-47.916c0,-0 -67.075,-5247.33 -69.966,-5471.54c-0.009,-0.242 -0.034,-0.487 -0.075,-0.725c-0.454,-2.433 -2.75,-4.083 -5.092,-3.646c-0.25,0.046 -0.496,0.113 -0.737,0.204l-98.959,34.55c-2.891,0.925 -4.337,2.95 -4.337,6.075c0.112,555.905 -54.517,5126.75 -54.517,5126.75l1.913,1352.43l-22.05,20.312l-21.355,-1.562l-20.658,-22.046l-1.562,-155.209c-0,0 -73.496,-5316.71 -70.488,-6198.08c0,-13.658 -6.192,-17.592 -18.575,-11.804l-66.667,30.554c-12.037,5.554 -18.17,14.988 -18.404,28.3c-7.525,607.754 -70.658,5369.46 -70.658,5369.46l-40.104,38.542l-7.467,-0.346l-25.521,-26.387c0,-0 -53.991,-4786.75 -55.729,-5249.5c-0.117,-6.946 -3.125,-8.684 -9.029,-5.209c-67.475,38.888 -101.388,96.817 -101.733,173.784c-2.2,511.921 -68.75,3497.92 -68.75,3497.92l-30.559,36.634l-17.708,3.471l-30.729,-25c-0,-0 -51.1,-2658.62 -48.438,-3399.83c0.117,-30.325 -8.041,-32.755 -24.479,-7.292c-20.946,32.404 -47.8,58.854 -80.554,79.337c-6.042,3.771 -9.725,10.413 -9.721,17.538c0.692,760.417 -49.654,3192.71 -49.654,3192.71l-28.992,25.521l-33.508,-4.342l-25,-28.125c-0,0 -49.825,-2291.72 -51.908,-2915.45c-0.117,-12.27 -3.763,-37.791 -10.938,-76.562c-1.042,-5.558 -3.879,-6.771 -8.508,-3.646l-77.084,51.213c-4.779,3.266 -7.645,8.67 -7.637,14.412c0.171,46.179 -7.292,92.708 -7.642,136.458c-2.254,272.396 -74.479,3999.65 -74.479,3999.65l0.008,0.6l-28.125,28.125l-21.187,-9.625l-23.958,-73.787c-0,-0 -43.75,-3590.8 -39.238,-3826.39l0,-0.045c0,-6.763 -5.562,-12.325 -12.325,-12.325c-4.592,-0 -8.821,2.566 -10.937,6.641c-20.371,40.509 -48.959,74.134 -85.763,100.867c-4.592,3.246 -7.862,8.054 -9.204,13.542c-3.817,15.279 -5.842,33.45 -6.075,54.516c-3.358,322.8 -47.917,2776.39 -47.917,2776.39l-41.321,47.571l-7.116,0.866l-1.325,0.134l-26.217,-22.792l-0.062,-1.3c-0,-0 -49.305,-2146.99 -39.238,-2619.45c0.35,-21.179 9.55,-43.921 8.163,-63.542c-0.413,-7.216 -6.467,-12.933 -13.696,-12.933c-3.834,0 -7.496,1.608 -10.092,4.429l-126.042,133.334c-3.241,3.466 -5.095,8.041 -5.208,12.845c-4.629,240.742 -41.146,1680.56 -41.146,1680.56l-10.416,9.55l-61.284,-7.117l-13.366,-14.583l-39.238,-1480.73c-0.696,-25.233 -9.087,-28.066 -25.175,-8.508l-112.325,136.633c-2.246,2.696 -3.529,6.117 -3.646,9.721c-21.875,409.609 -58.508,1228.65 -58.508,1228.65l-87.425,11.504l-0.075,-1.433l-30.379,-1072.4c-0.054,-1.271 -0.338,-2.525 -0.834,-3.7c-2.233,-5.258 -8.325,-7.779 -13.5,-5.583c-1.195,0.508 -2.283,1.241 -3.204,2.162l-140.796,138.892c-3.82,3.704 -5.729,8.275 -5.729,13.712c0.346,123.788 21.204,416.388 21.204,416.388l-163.437,-67.258c-0,-0 -11.763,-81.246 -10.721,-159.025c0.35,-19.905 -9.142,-27.488 -28.471,-22.742c-13.196,3.358 -29.341,13.308 -48.437,29.862c-118.288,102.663 -232.929,209.317 -343.925,319.963c-221.179,220.254 -445.542,437.212 -673.088,650.871c-129.516,121.354 -260.416,257.116 -381.079,370.833c-180.092,169.675 -358.217,341.433 -534.375,515.275c-24.825,24.479 -68.4,76.738 -105.9,110.592c-217.537,195.312 -424.133,407.987 -633.162,612.675c-68.4,66.837 -147.396,132.291 -210.417,194.962c-388.079,384.725 -781.479,763.95 -1180.21,1137.67c-87.267,81.946 -170.542,162.213 -249.825,240.8c-250.925,249.188 -502.546,497.625 -754.863,745.313c-88.887,87.15 -241.837,262.671 -377.254,354.858c-41.321,28.125 -73.958,-8.333 -77.954,-50.346c-1.734,-18.171 -2.663,-36.283 -2.775,-54.341c-5.559,-804.746 -5.038,-1609.55 1.562,-2414.41c0.867,-95.487 20.834,-144.966 84.546,-208.679c376.621,-377.083 703.125,-696.587 979.517,-958.508c33.504,-31.596 65.625,-40.45 102.254,-11.459c4.462,3.571 7.437,8.65 8.333,14.238c9.896,59.721 -3.646,127.083 -3.646,172.221c-0.691,312.383 -0.287,625.696 1.217,939.929c0.013,3.704 3.067,6.746 6.771,6.746c1.833,-0 3.587,-0.742 4.862,-2.059c395.138,-400.691 793.459,-799.42 1194.96,-1196.18c191.842,-189.758 392.187,-367.362 581.425,-562.5c153.242,-157.871 310.996,-311.054 473.262,-459.55c97.805,-89.466 181.713,-169.037 251.738,-238.712c298.958,-297.225 601.679,-590.567 908.158,-880.038c78.704,-74.421 161.979,-154.8 249.829,-241.146c547.917,-538.02 1082.81,-1027.25 1692.88,-1478.99c195.141,-144.446 420.662,-274.654 631.6,-412.325c100.691,-65.625 209.895,-122.571 315.104,-184.55c99.187,-58.334 228.296,-114.296 387.325,-167.884c0.808,-0.345 67.533,-24.65 200.175,-72.916c117.246,-42.709 238.887,-69.5 364.929,-80.379c65.162,-5.559 130.496,-13.43 196.008,-23.613c9.779,-1.508 17.142,-9.896 17.359,-19.792c3.82,-340.97 62.85,-3960.76 62.85,-3960.76l26.562,-24.479l7.638,0.691l33.854,36.98c-0,-0 56.25,3672.39 55.554,3946.7c-0,6.362 3.125,10.008 9.375,10.937l101.912,14.929c7.521,1.042 11.4,-2.258 11.63,-9.895c14.583,-425.117 59.725,-3357.99 59.725,-3357.99l22.741,-22.742l21.7,0.346l19.967,20.313c-0,-0 39.296,2624.19 52.258,3385.07c0.221,9.895 7.192,18.445 16.838,20.658l82.987,19.446c11.113,2.662 16.9,-1.679 17.363,-13.021c6.479,-159.492 62.325,-2418.05 62.325,-2418.05l-1.563,-16.842l32.813,-34.896l35.071,30.209c-0,-0 24.883,1665.68 54.166,2498.09c0.229,6.363 3.296,10.646 9.2,12.846l96.009,34.55c0.712,0.25 1.441,0.442 2.187,0.583c7.958,1.488 15.717,-3.758 17.188,-11.62c0.141,-0.771 0.225,-1.55 0.241,-2.334c12.846,-457.637 63.021,-3030.73 63.021,-3030.73l-0.025,-1.321l32.813,-32.812l2.629,0.108l33.508,59.025c0,0 11.108,2435.94 33.679,3104.69c0.234,6.25 2.779,11.287 7.638,15.104c31.946,24.887 67.766,41.608 107.466,50.175c0.055,0.012 0.109,0.021 0.167,0.033c5.421,1.054 10.733,-2.462 11.771,-7.792c0.017,-0.075 0.029,-0.15 0.042,-0.229c7.525,-44.441 47.22,-1822.57 47.22,-1822.57l35.767,-40.975l8.158,-0.867l32.813,26.217c-0,-0 -2.2,1339.75 14.583,1913.71c0.696,21.008 5.729,33.683 25.346,44.446c37.038,20.6 69.679,45.6 97.917,75c3.046,3.171 7.254,4.967 11.65,4.967c8.571,-0 15.725,-6.821 16.129,-15.384c20.487,-537.733 24.304,-1613.54 24.304,-1613.54l22.746,-23.092l25.692,-0.346l22.57,22.396c0,-0 24.538,1552.89 31.596,1710.76c1.738,37.85 59.725,68.925 80.038,90.8c20.6,22.109 41.087,46.53 61.458,73.263c2.067,2.7 5.279,4.287 8.683,4.287c5.913,0 10.809,-4.795 10.934,-10.708c6.829,-364.817 5.729,-1104.17 5.729,-1104.17l9.2,-46.704l11.633,-9.546l19.271,-1.041l1.563,-0.046l27.95,27.821c-0,-0 13.195,1189.41 53.3,1243.58c23.841,32.175 130.554,155.033 130.554,155.033Z" style="fill:#fff;fill-rule:nonzero;"/><path d="M17504.8,5270.35c-2.429,36.109 79.212,3413.32 68.229,3421.75c-41.321,31.6 -86.054,76.05 -134.2,95.959c-1.929,0.787 -3.925,1.395 -5.967,1.812c-17.733,3.604 6.313,-3423.17 0.238,-3520.22c-1.504,-24.42 9.954,-35.591 34.375,-33.508l8.504,0.696c20.604,1.737 30.208,12.904 28.821,33.508Z" style="fill:#fff;fill-rule:nonzero;"/><path d="M18145.2,8407.06l-148.883,73.529c-32.642,10.65 59.321,-2164.37 47.692,-3049.62c0.025,-6.333 4.733,-11.717 10.937,-12.5l47.221,-5.9c10.183,-1.275 15.279,3.238 15.279,13.542c-1.041,280.671 56.809,2971.45 27.754,2980.95Z" style="fill:#fff;fill-rule:nonzero;"/><path d="M17249.9,8867.31l-105.254,82.891c-3.479,1.629 5.096,-2908.55 5.904,-3019.08c0.234,-17.592 9.03,-25.638 26.388,-24.133l15.975,1.391c20.254,1.621 29.917,12.613 28.992,32.984c-12.963,276.854 35.983,2922.25 27.995,2925.95Z" style="fill:#fff;fill-rule:nonzero;"/><path d="M17865.2,8539.19c-48.612,32.637 -89.929,79.425 -143.575,86.02c-7.062,0.813 17.996,-2106.13 24.48,-2520.14c0.112,-8.1 4.225,-12.213 12.325,-12.325l61.283,-1.042c0.058,-0.004 0.117,-0.004 0.175,-0.004c7.429,0 13.542,6.117 13.542,13.542l-0,0.175c-1.388,276.391 36.979,2430.3 31.77,2433.77Z" style="fill:#fff;fill-rule:nonzero;"/><path d="M16856,7061.15l21.875,6.771c18.288,5.787 27.892,18.229 28.817,37.329c15.625,354.167 68.587,1918.75 64.654,1923.26c-37.267,42.709 -98.346,109.238 -154.942,114.909c-0.362,0.037 6.784,-1645.81 5.046,-2056.75c-0.117,-24.188 11.4,-32.696 34.55,-25.521Z" style="fill:#fff;fill-rule:nonzero;"/><path d="M16315.1,9299.94c12.154,80.729 -33.267,178.166 -150.975,150.212c-6.829,-1.617 5.325,-2252.63 5.904,-2370.23c0.117,-20.988 16.484,-38.571 37.325,-40.104l10.592,-0.867c36.804,-2.779 55.379,14.296 55.729,51.217c1.504,159.721 39.517,2196.58 41.425,2209.77Z" style="fill:#fff;fill-rule:nonzero;"/><path d="M15940.3,7256.65c-3.587,71.179 33.158,1653.82 34.546,2323.61c0.117,34.375 -158.504,164.813 -158.504,130.555c-0,-436.225 12.962,-2060.3 28.125,-2497.57c1.387,-39.063 12.846,-57.638 43.921,-78.296c5.058,-3.35 10.995,-5.138 17.062,-5.138c10.854,0 20.942,5.717 26.517,15.034c24.129,40.45 10.416,73.087 8.333,111.804Z" style="fill:#fff;fill-rule:nonzero;"/><path d="M16605.3,7417.23c2.316,6.25 3.529,12.671 3.646,19.271l63.745,1749.72c-0.012,4.054 -1.866,7.892 -5.037,10.417l-172.554,134.641c-2.888,2.225 -6.429,3.429 -10.071,3.429c-9.033,0 -16.471,-7.42 -16.492,-16.45c-0.579,-273.958 27.1,-1912.2 38.671,-1928.29c34.55,-48.092 83.508,-13.888 98.092,27.258Z" style="fill:#fff;fill-rule:nonzero;"/><path d="M15637.5,8250.94c-1.275,318.287 6.805,1520.62 6.805,1520.62c-0,7.409 -82.638,109.317 -133.334,106.771c-42.533,-2.083 -52.95,-18.054 -53.125,-60.592c-0.579,-119.904 -7.671,-1552.04 14.55,-1605.34c36.113,-86.633 165.45,-53.125 165.104,38.542Z" style="fill:#fff;fill-rule:nonzero;"/><path d="M9843.63,8584.06c-0,-0 34.204,1309.29 33.741,1312.53c-0.812,6.25 -4.166,10.533 -10.07,12.846c-28.938,10.762 -58.509,15.858 -88.717,15.279c-23.263,-0.35 -32.504,-12.008 -31.596,-35.246c7.175,-183.946 6.538,-1265.31 6.538,-1265.31l90.104,-40.104Z" style="fill:#fff;fill-rule:nonzero;"/><path d="M10170.8,9850.94c-2.6,13.262 -14.529,22.833 -28.125,22.566l-61.112,-1.733c-5.213,-0.117 -10.03,-2.788 -12.846,-7.121c-17.363,-26.85 -25.3,-1015.47 -25.3,-1015.47l72.916,-72.916l19.792,-0l52.429,51.737c0,0 -7.858,972.063 -17.754,1022.93Z" style="fill:#fff;fill-rule:nonzero;"/><path d="M5475.88,9021.94c-0,-0 174.037,-26.663 174.037,-14.375l-1.087,117.5c0.35,391.779 9.204,1340.1 9.375,1421.88c-0,61.108 -90.275,153.645 -138.021,200.866c-12.729,12.734 -25.346,12.559 -37.846,-0.521c-14.237,-14.929 -21.354,-36.862 -21.354,-65.8c-0.463,-522.337 -28.242,-1116.7 -28.933,-1637.3c-0,-7.362 36.466,-22.15 43.829,-22.245Z" style="fill:#fff;fill-rule:nonzero;"/><path d="M5922.79,8951.27c22.917,4.283 18.117,197.625 18.23,221.004l4.687,1102.6c0.1,18.392 -8.3,35.834 -22.742,47.221l-142.883,113.021c-2.217,1.775 -4.971,2.746 -7.812,2.746c-6.859,-0 -12.5,-5.646 -12.5,-12.5l-0,-0.142l9.204,-1283.68c0.112,-24.075 -9.725,-186.225 14.004,-181.825l139.812,-8.45Z" style="fill:#fff;fill-rule:nonzero;"/><path d="M6229.92,10110.5c-29.166,25.346 -112.5,80.379 -148.612,63.367c-44.096,-20.833 -17.533,-76.738 -17.883,-110.938c-2.196,-262.616 -4.917,-525.175 -8.159,-787.675c-0.346,-28.816 9.696,-434.02 10.767,-433.725l180.442,-1.083c21.379,5.833 -0.296,387.379 -0.584,409.463l-10.591,848.958c0.008,4.396 -1.955,8.642 -5.38,11.633Z" style="fill:#fff;fill-rule:nonzero;"/><path d="M6382.46,8999.02l153.821,56.079c6.046,2.192 16.883,876.2 16.883,876.2c0,6.25 -2.891,10.646 -8.679,13.192l-147.396,62.329c-2.858,1.212 -5.929,1.837 -9.029,1.837c-12.667,0 -23.092,-10.425 -23.092,-23.091l0,-0.1c0.463,-183.913 0.521,-370.604 0.175,-560.071c-0.175,-50.346 0.825,-365.608 3.255,-417c0.029,-0.504 0.095,-1.004 0.195,-1.5c1.15,-5.696 13.359,-8.063 13.867,-7.875Z" style="fill:#fff;fill-rule:nonzero;"/><path d="M6860.29,9136.85l4.188,669.971c-0.004,5.958 -3.663,11.342 -9.2,13.542l-152.083,60.416c-1.713,0.68 -3.538,1.03 -5.384,1.03c-7.996,-0 -14.575,-6.575 -14.583,-14.571l-3.146,-799.138l0,-0.108c0,-8 6.583,-14.583 14.583,-14.583c2.096,-0 4.171,0.45 6.08,1.325l151.041,68.925c5.15,2.362 8.479,7.525 8.504,13.191Z" style="fill:#fff;fill-rule:nonzero;"/><path d="M6994.71,9312.44c18.9,8.929 102.821,-6.955 135.217,22.716c37.533,34.384 47.533,362.067 32.812,391.138c-18.229,35.937 -108.508,40.625 -142.708,36.458c-5.146,-0.612 -9.058,-4.975 -9.029,-10.067l-12.442,-418.166c0,-8.217 -11.254,-25.55 -3.85,-22.079Z" style="fill:#fff;fill-rule:nonzero;"/><path d="M6664.13,10908.6c-23.842,24.654 -44.446,51.45 -61.804,80.383c-14.817,24.537 -24.83,55.717 -26.738,93.75c-32.292,643.054 -36.979,1220.49 -36.979,1220.49l-55.554,42.359l-5.904,-1.734l-59.896,-75.87c-0,-0 -5.209,-773.725 -10.763,-852.084c-0.096,-1.616 -0.725,-3.146 -1.787,-4.35c-2.65,-2.996 -7.354,-3.229 -10.421,-0.512c-1.196,1.054 -2.029,2.454 -2.375,3.996c-74.133,367.012 -117.363,737.845 27.254,1094.97c91.146,225.346 169.621,403.646 343.75,566.838c265.8,249.479 526.217,417.708 892.017,486.287c556.479,104.396 1065.05,-1.796 1525.69,-318.579c128.646,-88.367 265.8,-219.617 402.605,-351.733c381.02,-368.059 762.675,-735.534 1144.97,-1102.43c271.009,-260.066 523.784,-527.604 806.425,-793.054c278.471,-261.341 573.321,-549.016 884.546,-863.021c34.204,-34.72 65.279,-68.925 114.238,-71.179c42.708,-1.737 41.32,34.375 42.533,71.354c6.079,162.671 -5.033,351.042 -4.688,486.284c0.696,402.546 -0.058,702.025 -2.254,898.437c-0.175,19.446 -11.287,43.229 -26.041,58.679c-66.321,69.1 -206.138,208.105 -419.446,417.017c-266.088,260.529 -533.679,519.558 -802.779,777.083c-359.955,344.442 -717.709,691.205 -1073.26,1040.28c-230.208,226.042 -487.846,438.717 -768.404,597.571c-236.108,133.679 -476.733,234.609 -721.875,302.779c-228.354,63.542 -475.229,98.496 -740.625,104.859c-42.708,1.041 -93.054,-6.421 -144.617,-8.854c-538.541,-25.692 -1032.17,-185.938 -1480.9,-480.73c-430.033,-282.462 -786.458,-736.283 -981.771,-1209.2c-179.279,-434.141 -226.504,-883.854 -141.666,-1349.13c39.933,-219.096 128.475,-438.542 225.175,-641.317c111.283,-233.162 309.895,-450.35 494.791,-625.175c271.179,-256.25 588.542,-430.325 952.084,-522.22c50.695,-12.734 105.962,-21.875 165.8,-27.434c75.17,-6.771 150.345,-16.837 223.608,-6.421c291.842,41.667 511.633,209.025 741.496,378.992c4.746,3.471 7.175,8.1 7.291,13.888c4.05,121.183 -39.583,2514.76 -39.583,2514.76l-21.704,17.187l-35.588,-8.679l-22.916,-28.821c-0,0 -86.634,-2482.99 -67.884,-2544.62c5.209,-16.9 -0.983,-23.9 -18.575,-21.009l-78.82,13.196c-17.13,2.892 -25.638,13.079 -25.521,30.554c4.4,409.492 -30.904,2972.92 -30.904,2972.92l-7.117,12.154l-50.175,1.563l-14.063,-38.892c0,0 -65.854,-2470.66 -69.441,-2931.08c-0.117,-6.483 -3.359,-9.2 -9.725,-8.158l-100.521,17.012c-5.438,0.925 -8.158,4.167 -8.158,9.721c-1.505,471.875 -52.084,2861.46 -52.084,2861.46l-26.041,25l-13.367,-0.52l-30.729,-27.95c-0,-0 -60.475,-2485.13 -60.246,-2756.77c0.004,-0.838 -0.067,-1.675 -0.217,-2.496c-1.346,-7.5 -8.704,-12.546 -16.3,-11.179c-0.816,0.146 -1.625,0.366 -2.404,0.654l-84.725,31.946c-6.133,2.312 -9.258,6.712 -9.375,13.191c-4.858,367.538 -60.762,1932.29 -60.762,1932.29l-75.696,88.021l-10.588,-12.671c0,0 -51.562,-1545.08 -49.479,-1843.23c0.113,-16.321 -6.6,-19.908 -20.142,-10.767l-77.083,52.604c-9.142,6.25 -13.887,14.875 -14.233,25.871l-53.996,1763.02l-34.721,37.325l-9.896,0.867l-54.862,-45.659c-0,0 -47.221,-1508.68 -45.313,-1555.38c0.463,-10.996 -3.125,-12.558 -10.762,-4.687Z" style="fill:#fff;fill-rule:nonzero;"/><path d="M81.372,10363.8c0.52,-18.584 -14.146,-34.088 -32.725,-34.609l-13.192,-0.366c-18.579,-0.521 -34.088,14.141 -34.608,32.725l-0.834,29.85c-0.516,18.579 14.146,34.087 32.729,34.608l13.188,0.367c18.583,0.52 34.087,-14.146 34.608,-32.725l0.834,-29.85Z" style="fill:#fff;"/><path d="M306.505,10355.8c0.521,-18.584 -14.146,-34.088 -32.725,-34.609l-50.7,-1.416c-18.583,-0.517 -34.092,14.145 -34.608,32.729l-2.117,75.662c-0.517,18.579 14.146,34.088 32.729,34.609l50.7,1.416c18.583,0.517 34.088,-14.146 34.608,-32.729l2.113,-75.662Z" style="fill:#fff;"/><path d="M576.272,10325.5c0.516,-18.579 -14.146,-34.087 -32.73,-34.608l-81.179,-2.267c-18.583,-0.516 -34.087,14.146 -34.608,32.729l-4.254,152.288c-0.517,18.583 14.146,34.087 32.729,34.608l81.179,2.267c18.579,0.521 34.088,-14.146 34.608,-32.725l4.255,-152.292Z" style="fill:#fff;"/><path d="M855.988,10309c0.521,-18.579 -14.146,-34.088 -32.725,-34.608l-122.279,-3.413c-18.579,-0.521 -34.087,14.146 -34.608,32.725l-6.35,227.342c-0.517,18.579 14.146,34.087 32.729,34.608l122.275,3.413c18.583,0.52 34.092,-14.146 34.608,-32.725l6.35,-227.342Z" style="fill:#fff;"/><path d="M24570.1,10449c-0,18.587 15.091,33.679 33.683,33.679l13.192,0c18.591,0 33.683,-15.092 33.683,-33.679l0,-29.863c0,-18.587 -15.092,-33.679 -33.683,-33.679l-13.192,0c-18.592,0 -33.683,15.092 -33.683,33.679l-0,29.863Z" style="fill:#fff;"/><path d="M24345.3,10463.3c0,18.587 15.092,33.679 33.68,33.679l50.72,-0c18.588,-0 33.68,-15.092 33.68,-33.679l-0,-75.696c-0,-18.588 -15.092,-33.679 -33.68,-33.679l-50.72,-0c-18.588,-0 -33.68,15.091 -33.68,33.679l0,75.696Z" style="fill:#fff;"/><path d="M24076.5,10501.1c-0,18.592 15.091,33.683 33.679,33.683l81.212,0c18.588,0 33.68,-15.091 33.68,-33.683l-0,-152.346c-0,-18.592 -15.092,-33.683 -33.68,-33.683l-81.212,-0c-18.588,-0 -33.679,15.091 -33.679,33.683l-0,152.346Z" style="fill:#fff;"/><path d="M23797.3,10525.4c0,18.587 15.092,33.679 33.679,33.679l122.325,-0c18.588,-0 33.679,-15.092 33.679,-33.679l0,-227.43c0,-18.587 -15.091,-33.679 -33.679,-33.679l-122.325,0c-18.587,0 -33.679,15.092 -33.679,33.679l0,227.43Z" style="fill:#fff;"/><path d="M8334.96,10566.6c42.267,31.862 -7.371,1410.6 -11.583,1470.17c-0.479,6.833 -5.634,12.079 -11.584,11.779l-57.308,-3.121c-5.996,-0.258 -10.908,-5.912 -11.279,-12.987c-13.838,-336.863 -30.533,-1458.34 -31.738,-1544.46c-0.404,-26.321 7.871,-30.65 24.817,-12.987c33.542,35.154 54.45,58.183 98.675,91.604Z" style="fill:#fff;fill-rule:nonzero;"/><path d="M8552.67,12796.8c0,-0 -45.487,-1656.08 -44.095,-2052.78c-0.009,-1.088 0.187,-2.167 0.57,-3.184c1.75,-4.633 7.075,-6.975 11.8,-5.191c0.996,0.375 1.921,0.921 2.734,1.604c29.05,24.771 62.671,41.496 100.866,50.175c27.763,6.258 47.417,31.542 46.7,60.071c-5.67,206.016 -48.087,1946 -48.087,1946l-21.529,21.354l-31.771,-0.521l-17.188,-17.358l0,-0.175Z" style="fill:#fff;fill-rule:nonzero;"/><path d="M8969.67,11020.5l-35.416,1544.45l-10.763,14.062l-30.554,9.55l-8.683,1.304l-29.513,-29.083l-25,-1617.71l0,-0.154c0,-6.192 5.092,-11.284 11.284,-11.284c2.225,0 4.4,0.659 6.25,1.888l118.229,78.996c2.612,1.85 4.166,4.829 4.166,7.983Z" style="fill:#fff;fill-rule:nonzero;"/><path d="M9164.13,12642.9c-0,-0 -37.617,-1266.84 -31.946,-1501.91c0.117,-5.671 -0.867,-11.171 -2.95,-16.491c-5.325,-13.196 -7.525,-26.855 -6.596,-40.975c0.367,-5.613 5.217,-10.005 10.938,-9.896c51.387,1.275 94.5,21.008 129.337,59.204c4.4,4.746 6.6,10.358 6.6,16.837c1.621,223.267 -26.737,1476.39 -26.737,1476.39l-23.784,30.9l-26.737,7.292l-28.125,-21.354Z" style="fill:#fff;fill-rule:nonzero;"/><path d="M9517.08,11172.8c43.404,12.962 64.758,42.129 64.063,87.5l-10.588,642.187l-42.017,41.146l-35.416,-0l-44.617,-44.617l-0.696,-685.591c-0.112,-40.859 19.446,-55.442 58.684,-43.75l10.587,3.125Z" style="fill:#fff;fill-rule:nonzero;"/><path d="M10517.3,11555.9l-16.321,78.475l-11.629,11.458l-94.621,2.604l-13.021,-10.592l-12.325,-35.937c0,-0 -7.004,-234.433 4.342,-351.908c0.196,-2.796 2.154,-5.175 4.858,-5.905l119.1,-33.508c0.679,-0.196 1.367,-0.358 2.063,-0.487c11.154,-2.025 22.008,5.562 24.054,16.804c0.125,0.691 0.216,1.387 0.271,2.087c8.912,108.567 -6.771,326.909 -6.771,326.909Z" style="fill:#fff;fill-rule:nonzero;"/><path d="M9796.92,12056.5l-55.554,-60.587l-0.175,-754.517c0,-0.537 0.017,-1.079 0.05,-1.617c0.867,-13.02 12.371,-23.016 25.484,-22.145c0.516,0.033 1.033,0.083 1.55,0.154l124.479,17.187c5.441,0.692 8.1,3.817 7.987,9.375l-13.196,765.104l-55.904,50.171l-34.721,-3.125Z" style="fill:#fff;fill-rule:nonzero;"/><path d="M10073.5,11246.2l121.354,11.284c14.467,1.391 21.642,9.375 21.529,23.958c-1.042,150.117 -0.521,472.05 -0.521,472.05l-11.808,102.779l-11.283,10.588l-132.467,-27.775l-7.638,-12.33c0,0 -13.945,-371.295 -6.075,-557.291c0.009,-0.217 0.021,-0.434 0.038,-0.654c0.958,-13.392 12.85,-23.621 26.337,-22.655c0.18,0.017 0.359,0.03 0.534,0.046Z" style="fill:#fff;fill-rule:nonzero;"/><path d="M8323.63,12039.4c0.021,-11.879 -9.609,-21.541 -21.488,-21.562l-37.5,-0.067c-11.883,-0.021 -21.546,9.608 -21.566,21.492l-1.084,620.991c-0.021,11.884 9.609,21.546 21.492,21.567l37.5,0.063c11.879,0.02 21.542,-9.609 21.562,-21.488l1.084,-620.996Z" style="fill:#fff;"/></svg>