<?xml version="1.0" encoding="UTF-8" standalone="no"?><!DOCTYPE svg PUBLIC "-//W3C//DTD SVG 1.1//EN" "http://www.w3.org/Graphics/SVG/1.1/DTD/svg11.dtd"><svg width="100%" height="100%" viewBox="0 0 5917 4072" version="1.1" xmlns="http://www.w3.org/2000/svg" xmlns:xlink="http://www.w3.org/1999/xlink" xml:space="preserve" xmlns:serif="http://www.serif.com/" style="fill-rule:evenodd;clip-rule:evenodd;stroke-linejoin:round;stroke-miterlimit:2;"><path d="M3050.39,3002.81c-2.792,-2.458 -8.25,-5.625 -8.333,-10.583c-3.278,-215.139 -3.848,-352.472 -1.709,-412c1.25,-34.5 1.611,-63.806 1.084,-87.917c-0.834,-39.5 -1.25,-59.375 -1.25,-59.625c-0.167,-664.694 -0.167,-1329.4 -0,-1994.12c0.041,-48 2.708,-114.5 1.208,-171.958c-0.167,-6.583 2.583,-17.417 7.167,-22.333c79.458,-85.125 142.541,-140.959 249.333,-240.75c4.5,-4.195 10.069,-4.639 16.708,-1.334c1.139,0.556 1.861,1.431 2.167,2.625c2.083,7.917 -0.083,16.459 -0.167,22.417c-2.777,158.278 -3.444,316.569 -2,474.875c0,2.583 1.5,5.042 1.5,7.5c0,98.875 -1.458,197.667 -1.583,296.583c-0.042,26.875 2.75,90.542 1.417,135.792c-2.875,99 -1.792,198.333 -1.292,297.333c0.972,195.445 1.444,390.903 1.417,586.375c-0.028,113.028 0.041,417.959 0.208,914.792c0,6.125 -1.875,12.708 -1.917,19.333c-0.027,1.473 -0.555,2.736 -1.583,3.792c-8.75,9.083 -16.667,20.167 -25.167,28.5c-61.055,59.861 -122.319,119.528 -183.791,179c-0.111,0.083 -4.792,4.958 -14.042,14.625c-8.208,8.542 -28.75,26.583 -39.375,17.083Z" style="fill-rule:nonzero;"/><path d="M3430.22,2651.43c-5.416,5.542 -8,11.292 -12.083,17.75c-0.806,1.25 -1.958,1.75 -3.458,1.5l-12,-1.958c-1.653,-0.265 -2.879,-1.723 -2.875,-3.417c-0.111,-83.472 -0.098,-166.347 0.041,-248.625c0.042,-7.333 -1.875,-15.458 -1.875,-22.875c-0.027,-114.611 -0.027,-229.208 0,-343.791c0,-7.584 1.834,-15.292 1.834,-22.25c-0,-142.139 -0.028,-284.264 -0.084,-426.375c0,-10.334 -1.166,-35.584 -0.583,-53.25c0.333,-10.195 0.5,-17.278 0.5,-21.25c0.208,-168.834 2.208,-337.917 -1.542,-506.709c-0.833,-36.875 1.667,-78.541 1.709,-110.208c0.111,-114.083 0.111,-228.167 -0,-342.25c-0,-14.5 0.125,-20.292 10.666,-31.208c72.556,-75.278 146.917,-148.709 223.084,-220.292c10.541,-9.875 20.25,-20.208 37,-15.458c1.194,0.333 1.805,1.139 1.833,2.416c0.5,38.5 -1.583,87.709 -1.875,115.334c-0.556,56.333 -0.264,112.666 0.875,169c0.111,6.277 0.028,12.541 -0.25,18.791c-0.389,8.445 -0.583,14.681 -0.583,18.709c-0.028,475.694 -0.042,951.389 -0.042,1427.08c0,3.917 1.667,9.125 1.667,13.958l-0,335.459c-0,1.416 -0.5,2.611 -1.5,3.583c-14.5,14.25 -27.375,31.208 -40.667,44.375c-67.167,66.75 -133.764,134.069 -199.792,201.958Z" style="fill-rule:nonzero;"/><path d="M2232.47,2363.52c14.75,2.194 37.295,7.924 34.156,5.146c-0.972,-0.833 -1.544,5.213 -1.544,3.935c0.25,-37.583 8.722,-499.498 8.722,-499.498l9.25,-8.292l1.458,0l8.625,8.417c0,0 5.449,496.487 6.408,496.601c130.458,10.625 212.8,-91.976 230.217,-214.726c2.222,-15.639 3.194,-39.903 2.917,-72.792c-0.625,-77.833 2.541,-156.458 2.541,-233.333c0,-354.778 -0.014,-709.556 -0.041,-1064.33c-0,-11.417 29.375,-40.042 38.208,-48.5c72.111,-68.861 143.722,-138.236 214.833,-208.125c6.806,-6.695 14.639,-10.598 23.5,-11.709c0.222,-0.027 0.445,-0.041 0.668,-0.041c2.972,-0 5.417,2.445 5.417,5.417c0,0.041 -0,0.083 -0.001,0.124c-1.917,73.417 -3.709,146.042 -3.709,219.917c-0.083,419.833 -0.069,839.681 0.042,1259.54c0,57.583 1.875,130.25 -1.542,198.75c-4.166,84.375 -26.833,166.333 -72.25,237.166c-58.708,91.5 -149.583,164.709 -255.666,193.417c-30.528,8.25 -61.5,14.278 -92.917,18.083c-35.75,4.292 -70.25,-1.125 -105.583,-7.125c-65.334,-11.083 -123.042,-40.25 -177.292,-76.958c-17.889,-12.083 -39.292,-29.694 -64.208,-52.833c-22.584,-21 -45.167,-41.959 -67.75,-62.875c-36.195,-33.5 -75.139,-63.403 -116.834,-89.709c-19.375,-12.25 -41.333,-18.041 -59.458,-31.083c-41.028,-29.611 -85.792,-57.681 -134.292,-84.208c-67.083,-36.75 -142.791,-66.167 -218.541,-73c-31.625,-2.834 -73.542,-7.042 -103.667,4.333c-6.472,2.444 -12.639,3.819 -18.5,4.125c-12.694,0.611 -42.167,7.361 -42.167,10.333c-0.333,143.278 -2.028,408.559 -2.028,408.559l-40.763,47.566c-0,0 -8.375,-387.708 -6.334,-439.375c0.111,-3.166 -23.944,3.556 -23.916,6.334c0.527,72 -13.375,1158.71 -13.375,1158.71l-2.209,11.833l-6.293,5.167l-6.415,-6.25c0,0 -17.597,-1043.62 -19.208,-1139.96c-0.028,-1.584 -0.792,-2.584 -2.292,-3c-3.917,-1.139 -8.111,-0.514 -12.583,1.875c-11.25,5.958 -5.334,13.083 -5.5,21.041c-1.695,88.528 -16.334,921.459 -16.334,921.459l-2.875,2.708l-10.708,0.083l-5.333,-5.333c-0,0 -15,-841.375 -13.917,-900.458c0.007,-0.412 -0.051,-0.822 -0.17,-1.215c-0.625,-2.056 -23.122,12.159 -23.122,16.631c0.167,84.028 -14.208,824.667 -14.208,824.667l-4.083,3.833l-6.584,-0.416l-4,-4.25c0,-0 -14.291,-695.042 -16.666,-788.167c-0.046,-1.865 -1.592,-3.375 -3.458,-3.375c-0.825,0 -1.624,0.296 -2.251,0.833l-14.916,12.584c-1.167,1 -1.764,2.277 -1.792,3.833c-1.417,111 -12.333,592.458 -12.333,592.458l-5.292,4.917l-2.958,-0.292l-6.709,-6.916c0,-0 -11.875,-460.32 -12.958,-533.042c-0.083,-5.25 1.75,-11.667 -1.417,-17.708c-0.972,-1.889 -2.347,-2.236 -4.125,-1.042l-21,14.417c-1.452,1.01 -2.3,2.689 -2.25,4.458c0.917,39.167 -7.875,419.833 -7.875,419.833l-5.833,4.917l-7.417,-1.792l-5.833,-7.291l-6.875,-389.417c-0.009,-0.255 -0.052,-0.508 -0.129,-0.752c-0.461,-1.461 -2.024,-2.289 -3.463,-1.836c-0.248,0.079 -0.484,0.192 -0.7,0.338l-29.041,19c-0.726,0.495 -1.151,1.313 -1.125,2.167c0.916,51.889 -5.375,307.166 -5.375,307.166l-3.75,4.459l-13.334,-8.584c0,0 -4.611,-215.236 -4.916,-281.041c-0.004,-0.314 -0.05,-0.625 -0.136,-0.927c-0.526,-1.846 -2.46,-2.938 -4.284,-2.418c-0.307,0.087 -0.601,0.217 -0.872,0.386l-28.583,17.334c-2.661,1.619 -4.362,4.442 -4.542,7.541c-9.125,136.5 -4.625,410.584 -4.625,410.584l-7.708,6.5l-9.334,-19.875c0,-0 -6.402,-319.834 -8.458,-374.25c-0.028,-0.889 0.111,-1.736 0.417,-2.542c0.639,-1.556 0.986,-2.361 1.041,-2.417c0.39,-0.595 0.6,-1.27 0.61,-1.959c0.031,-2.194 -1.975,-4.028 -4.444,-4.062c-0.77,-0.011 -1.531,0.154 -2.207,0.48l-31.209,15.208c-1.608,0.797 -2.64,2.441 -2.666,4.25c-0.125,30.333 0.208,213.083 0.208,213.083l-1.833,2.417l-19.709,-19.292c0,0 -0.347,-122.833 -2.625,-188c-0.111,-3.361 -1.694,-4.347 -4.75,-2.958c-10.722,4.861 -21.972,8.042 -33.75,9.542c-1.242,0.145 -2.193,1.186 -2.208,2.416l-3.625,138.417l-3.917,3.792l-7.416,-0.084l-4.167,-4.083l-3.792,-130.333c-0.04,-1.366 -1.174,-2.467 -2.54,-2.467c-0.07,-0 -0.14,0.003 -0.21,0.008l-38.333,2.875c-2.21,0.172 -3.942,2.013 -3.958,4.209c-0.139,67.444 -1.834,199.75 -1.834,199.75l-0.541,13.583l-3.292,3.042l-8.625,-0.042l-2.625,-2.583l-2.792,-207.584c-0.049,-3.528 -2.529,-6.581 -5.958,-7.333c-10.417,-2.222 -20.722,-1.903 -30.917,0.958c-1.25,0.361 -1.958,1.181 -2.125,2.459c-1.708,14.208 -2.75,94.541 -2.75,94.541l-1.875,3.292l-25.916,-15.208c-0,-0 0.375,-52.931 0.291,-79.375c0,-1.556 -0.791,-2.292 -2.375,-2.209c-12.583,0.667 -24.43,-1.958 -35.541,-7.875c-0.132,-0.069 -0.272,-0.12 -0.417,-0.152c-0.871,-0.191 -1.741,0.349 -1.927,1.198c-0.033,0.149 -0.043,0.302 -0.031,0.454c0.805,11.917 -0.917,54.459 -11.792,56.125c-20.125,3.042 -21.208,-56.75 -21.208,-56.75l-0.034,-0.114l-2.567,-1.258l-0.108,0.039l-25.458,-0.167l-1.043,-0.209l-2.708,2.709l0.001,0.084l1.25,27.666l-0.004,0.969l-10.889,9.878l-0.982,-0.097l-9.667,-1.416l-10.708,-13.375c0,-0 -0.111,-20.875 -2.833,-31.042c-0.361,-1.361 -1.25,-2.125 -2.667,-2.292l-23.583,-2.666c-0.834,-0.111 -1.32,0.264 -1.459,1.125l-4.333,30.333l-2.542,2.583l-22.291,-3.208l-2.459,-3.417l-3.041,-30.125c-0.334,-3.305 -2.167,-5.139 -5.5,-5.5l-17.125,-1.791c-4.223,-0.445 -6.5,1.444 -6.834,5.666c-0.389,5.25 -5.041,14.167 -5.041,14.167l-3.542,1.542l-23.333,-3.459c-0,0 -3.917,-2.08 -4.209,-4.25l-2.708,-19.583c-0.173,-1.214 -1.258,-2.097 -2.458,-2c-22.625,1.458 -17.318,-14.33 -17.818,-28.497c-0.116,-3.031 0.797,-11.431 3.776,-12.003l16.333,-3.167c1.445,-0.277 2.32,-1.125 2.625,-2.541c1.917,-8.75 5.261,-25.799 5.261,-25.799c0,-0 21.225,-5.35 25.534,3.12c2.701,5.309 1.397,15.629 1.622,20.22c0.083,2.028 1.153,3.056 3.208,3.084l29.292,0.291c4.98,-11.837 6.891,-46.621 6.891,-46.621l22.842,-0.255c-0,0 3.239,44.14 5.934,44.168l21.666,0.083c2.639,0.028 4.223,-1.264 4.75,-3.875l2.638,-43.445l29.404,-2.43c0,0 2.449,47.757 2.949,47.71c0.003,-0.001 0.006,-0.001 0.009,-0.001l27.25,-2.667c1.088,-0.086 1.942,-1.013 1.959,-2.125l2.22,-184.458l32.03,-2.959c-0,0 0.319,131.959 0.125,185.542c-0,0.003 -0,0.005 -0,0.008c-0,0.548 0.451,1 1,1c0.041,-0 0.083,-0.003 0.125,-0.008l33.125,-3.292c0.583,-0.055 0.916,-0.375 1,-0.958c1.639,-14.361 6.208,-168.875 6.208,-168.875l23.257,-2.237c-0,0 5.285,146.931 1.618,164.404c-0.333,1.666 0.347,2.5 2.042,2.5l31.708,0.166c1.694,0 3.125,-0.625 4.292,-1.875c3.111,-3.361 7.791,-313.25 7.791,-313.25l2.917,-2.875l7.875,0.084l9.058,2.875c-0,-0 -0.058,280.5 0.734,296.583c0.055,1.111 0.611,1.514 1.666,1.208l31.209,-8.875c2.31,-0.665 3.913,-2.78 3.916,-5.166l4.942,-179.638l0.001,-0.022l5.535,-2.716l0.022,0.001l11.875,0.416l2.959,3.084l-0.375,162.958c-0,5.056 2.208,6.375 6.625,3.958l25.291,-13.833c4.601,-2.509 7.721,-7.073 8.375,-12.25c5.75,-44.639 7.7,-284.162 7.7,-284.162l9.884,-7.005l1.958,0.375l11.473,5.287l-2.223,270.463c0.013,1.568 1.307,2.851 2.875,2.851c0.766,0 1.502,-0.306 2.042,-0.851c-0,0 38.889,-36.097 39,-41.875c1.305,-87.861 2.75,-383.958 2.75,-383.958l6.666,-10.5l1.792,-0.708l9.631,6.086l1.661,376.664c0.019,1.472 1.235,2.673 2.708,2.673c0.679,0 1.334,-0.255 1.833,-0.715l34.875,-32.083c2.328,-2.14 3.621,-5.196 3.542,-8.375c-1.208,-37.209 3.542,-377.334 3.542,-377.334l5,-5.208l5.583,0.042l10.515,4.206c-0,0 0.457,298.544 0.402,360.794c-0.004,0.618 0.314,1.189 0.833,1.5c1.111,0.722 2.208,0.402 3.292,-0.959c9.861,-12.083 20.861,-23.055 33,-32.916c0.714,-0.58 1.141,-1.433 1.166,-2.334l0.899,-297.244l8.351,-3.797l18.856,6.073c-0,0 -1.036,201.427 0.269,264.51c0.011,0.596 0.141,1.183 0.382,1.727c1,2.257 34.327,-26.894 34.327,-26.894c0.643,-0.668 1.014,-1.545 1.041,-2.458c3.528,-93.444 1.417,-410.75 1.417,-410.75l1.833,-3.75l30,1.033c0,-0 1.009,392.434 1.165,392.875c0.774,2.199 26.835,-21.616 26.835,-21.616c0.951,-0.739 1.518,-1.858 1.542,-3.042c2.306,-61.667 1.857,-583.955 1.857,-583.955l11.351,-5.337l5.084,0.625l13.062,4.079c0,-0 0.966,533.506 0.466,565.534c-0.001,0.022 32.597,-24.238 32.597,-24.238c1.139,-0.916 1.736,-2.111 1.791,-3.583c2.542,-65.25 4.943,-574.207 4.943,-574.207l11.641,-5.876l5.75,-0l12.475,5.414c-0,0 0.997,442.725 3.941,551.836c0.093,2.805 35.203,-15 35.453,-16.417c1.695,-9.472 3.93,-666.761 3.93,-666.761l13.73,-8.66l0.262,0.004l2.917,0.084l6.078,3.807c-0,-0 9.408,514.318 11.464,657.234c0.027,1.917 0.986,2.667 2.875,2.25l21.083,-4.583c1.333,-0.306 2.014,-1.139 2.042,-2.5c2,-58.639 14,-867.625 14,-867.625l7.333,-7.958l4.792,-0.334l7.208,6.792c0,0 11.681,729.847 13.208,852.958c0.002,0.162 0.014,0.324 0.037,0.484c0.284,1.991 2.137,3.4 4.106,3.119c0.163,-0.023 0.324,-0.057 0.482,-0.103l21.417,-5.958c1.389,-0.389 2.083,-1.292 2.083,-2.708c1.167,-123.056 14.209,-873.459 14.209,-873.459l-0,-0.02l2.708,-2.709l0.333,0.021l9.875,1.292l2.917,2.541c0,0 14.861,852.889 13.25,861.75c-0.639,3.584 0.861,5.32 4.5,5.209l22.458,-0.75c1.501,-0.045 2.71,-1.31 2.709,-2.834c-0.5,-100.666 16.333,-1003.54 16.333,-1003.54l-0,-0.008l4.167,-4.167l0.25,0.008l1.666,0.083l6.084,6.375l14.25,1001.46c-0,0.5 0.264,0.764 0.791,0.791l27.459,0.542c0.639,0.028 0.958,-0.292 0.958,-0.958c0.667,-81.028 12.667,-1134.12 12.667,-1134.12l1.833,-3.667l13.667,-0.25l1.583,3.167c0,-0 16.139,1095.62 16.417,1136.04c-0,1.834 0.916,2.848 2.75,3.042l20.166,2.25c1.945,0.222 2.945,-0.653 3,-2.625c2.445,-146.5 15.625,-924.875 15.625,-924.875l2.959,-3.083l11,-0.334l2.125,2.042c-0,0 12.944,913.139 14,932.667c0.139,2.833 1.569,4.639 4.291,5.416l20.75,6.084c0.298,0.085 0.607,0.128 0.917,0.128c1.829,0 3.333,-1.505 3.333,-3.333c0,-0.001 0,-0.002 0,-0.004c-0.222,-90.861 16.459,-755.416 16.459,-755.416l4.541,-4.417l8.125,0.292l4.209,4.333c-0,0 10.333,714.333 12.583,771.5c0.028,1.389 0.625,2.472 1.792,3.25l22.875,15.292c0.608,0.414 1.327,0.635 2.063,0.635c2.011,0 3.666,-1.655 3.666,-3.667c0,-0.227 -0.021,-0.453 -0.063,-0.677c-3.291,-17.958 10.792,-616.041 10.792,-616.041l2.208,-3.125l11.167,3.125l1.792,3.958l17.041,641.333c0.023,1.218 0.754,2.323 1.875,2.834l21.917,10.166c2.111,0.973 3.222,0.292 3.333,-2.041c3.084,-65.959 16.042,-829.459 16.042,-829.459l6.917,-6.291l2.25,0.208l4.666,5.625c0,0 6.497,768.779 9.524,847.084c0.337,8.479 31.254,26.11 31.31,24.333c4.083,-156.625 16.416,-699.334 16.416,-699.334l4.209,-4.208l7.125,-0.083l4.5,4.333c-0,0 8.5,600.986 13.583,730.792c0.054,1.343 0.714,2.587 1.792,3.375l23.875,17.875c0.269,0.206 0.57,0.368 0.89,0.479c1.663,0.576 3.512,-0.337 4.095,-2.021c0.116,-0.336 0.178,-0.687 0.181,-1.042c-0.361,-118.666 12.875,-578.541 12.875,-578.541l4.744,-4.51l1.423,0.218l1.917,0.625l7.416,10.125c0,0 12.07,517.931 15.459,601.875c0.055,1.583 0.694,2.903 1.916,3.958l21.584,18.709c0.143,0.121 0.306,0.217 0.482,0.285c0.833,0.318 1.773,-0.088 2.083,-0.9c0.067,-0.176 0.101,-0.363 0.101,-0.552l7.5,-379.708l3.25,-3.959l23.209,2.167l1.958,2.958c0,0 1.625,266.736 8.792,399.959c0.389,6.833 2.291,12.375 5.708,16.625c4.639,5.722 23.881,19.618 23.881,15.73c0.278,-116.167 10.411,-650.397 10.411,-650.397l5.5,-5.375l6.666,0.125l4.542,4.5l12.958,670.75c0,1.306 0.584,2.278 1.75,2.917l29.25,15.666c0.383,0.212 0.813,0.323 1.251,0.323c1.417,-0 2.583,-1.166 2.583,-2.583c-0,-0.011 -0,-0.021 -0,-0.031c0.125,-42.625 8,-542.167 8,-542.167l6.083,-6.458l6.583,-0.375l4.667,4.666l2.083,23.375c0,0 10.75,430.181 10.834,539.375c0.004,2.885 1.712,5.496 4.333,6.625l28.5,12.292c1.917,0.833 2.889,0.208 2.917,-1.875c0.639,-89 8.25,-495.125 8.25,-495.125l6.708,-6.833l7.042,0.041l7.708,7.75c0,0 5.5,441.792 8.25,502.459c0.167,3.694 2.069,5.819 5.708,6.375Z" style="fill-rule:nonzero;"/><path d="M4468.56,1995.26c-0.039,0.003 14.083,-1233.12 14.083,-1233.12c0.028,-4 2.056,-5.973 6.083,-5.917l2.542,0c3.374,0.045 6.126,2.853 6.125,6.25c-0.194,206.667 19.502,1227.84 15.859,1228.19l-44.692,4.599Z" style="fill-rule:nonzero;"/><path d="M4550.68,1987.73c-0.444,-0.025 -0.817,-3.815 -1.127,-10.918c-4.61,-105.505 4.658,-941.901 4.293,-1027.08c0,-0.014 0,-0.028 0,-0.042c0,-3.52 2.897,-6.417 6.417,-6.417c0.028,0 0.056,0 0.083,0.001l1.625,0.041c0.084,0.001 0.168,0.003 0.251,0.007c3.608,0.17 6.436,3.298 6.264,6.928c-0.003,0.077 -0.008,0.155 -0.015,0.232c-2.75,34.375 18.162,1036.31 16.828,1036.59c-8.889,1.666 -24.508,1.186 -34.619,0.658Z" style="fill-rule:nonzero;"/><path d="M4404.66,2004.69c-6.972,1.195 3.557,-915.141 5.474,-985.002c0.056,-1.722 0.944,-2.541 2.667,-2.458l7.208,0.292c1.653,0.089 2.945,1.512 2.875,3.166c-1.792,36.792 10.097,980.153 8.708,980.542c-6.944,1.944 -16.737,1.738 -26.932,3.46Z" style="fill-rule:nonzero;"/><path d="M5099.97,2253.6c0.31,0.586 0.921,0.953 1.584,0.953c0.981,0 1.789,-0.805 1.791,-1.786l0.5,-221.125l5.792,-5.751l0.083,0.001l6.292,0.166l6.167,6.25c-0,0 1.458,154.014 3.708,231.209c0.667,22 37.194,47.291 41.083,52.541c0.2,0.263 0.458,0.477 0.753,0.628c1.059,0.539 2.366,0.129 2.895,-0.91c0.152,-0.299 0.23,-0.631 0.227,-0.968l0.834,-270.083l3.041,-3l11.042,0.167l2.875,2.875l2.25,291.25c0.027,1.479 0.716,2.871 1.875,3.791l43.583,34.417c0.326,0.245 0.722,0.378 1.129,0.378c0.983,-0 1.807,-0.772 1.871,-1.753c0.167,-4.5 -1.583,-9.5 -1.5,-13.792c1.195,-74.611 1.042,-221.75 1.042,-221.75l6.75,-6.875l2.375,-0.041l8.792,8.583l1.583,242.25c0,1.333 0.458,2.5 1.375,3.5c11.361,11.944 23.972,22.167 37.833,30.667c4.834,2.944 7.264,1.583 7.292,-4.084l1.792,-197.875l7.75,-6.25l6.375,1.375l6.041,7.375l0.792,205.584c0.024,4.869 2.715,9.353 7,11.666l34.25,18.584c0.473,0.259 1.003,0.394 1.542,0.394c1.751,0 3.196,-1.434 3.208,-3.186l0.042,-178.25l6.333,-5.75l6.917,0.625l6.666,7.333c0,0 4.459,138.084 4.125,176.042c-0.019,2.889 1.969,5.417 4.75,6.042l31.792,7.375c4.444,1.027 6.694,-0.736 6.75,-5.292l0.792,-85.958l7.041,-6.953l1.042,0.078l2.875,0.458l9.333,10.792l0.459,84c0.031,3.639 2.766,6.733 6.375,7.208l27,3.5c3.805,0.5 5.694,-1.167 5.666,-5l0,-46.792l9.875,-10.166l8.375,-0.209l8.5,8l1.584,55.625c0.017,0.985 0.791,1.813 1.791,1.917l34.584,2.875c0.041,0.004 0.083,0.006 0.125,0.006c0.778,-0 1.417,-0.64 1.417,-1.417c0,-0.016 -0,-0.032 -0.001,-0.047l-1.333,-40l12.75,-13.042l3.25,0.042l12.333,11.875l2.417,43.458c0.131,2.548 2.241,4.585 4.792,4.625l23.666,0.458c3.167,0.084 5.028,-1.444 5.584,-4.583l5.708,-31.792l17.098,-3.713c0,-0 8.86,27.338 9.569,37.088c0.111,1.834 1.041,3.042 2.791,3.625l10.5,3.417c1.25,0.417 2.348,1.111 3.292,2.083c6.944,7.167 7.625,15.153 2.042,23.959c-0.829,1.313 -2.125,2.266 -3.625,2.666l-14.75,3.917c-1.082,0.303 -1.885,1.221 -2.042,2.333l-1.75,13.25l-2.667,3.084c0,-0 -26,1.583 -24.583,-12c0.015,-0.15 0.023,-0.301 0.023,-0.452c-0,-2.469 -2.032,-4.5 -4.5,-4.5c-0.402,-0 -0.802,0.054 -1.19,0.16l-23.791,6.375c-0.977,0.27 -1.691,1.117 -1.792,2.125c-1.083,10.5 -14.792,25.333 -14.792,25.333c0,0 -17.986,-7.889 -14.791,-21.333c0.029,-0.128 0.045,-0.259 0.049,-0.39c0.033,-1.096 -0.824,-2.025 -1.898,-2.057c-0.134,-0.004 -0.269,0.006 -0.401,0.03l-35,6.084c-1.445,0.25 -2.223,1.097 -2.334,2.541c-1.125,14.375 -21.083,32.959 -21.083,32.959c0,-0 -8.958,-10.084 -8.042,-25.084c0.25,-3.972 -1.611,-5.861 -5.583,-5.666l-24.292,1.166c-4.027,0.195 -5.777,2.292 -5.25,6.292c2.639,20.972 -15.416,33.25 -15.416,33.25c-0,0 -11.792,-22.792 -12.917,-33.25c-0.167,-1.333 -0.917,-2.028 -2.25,-2.083l-34.208,-1.375c-0.917,-0.056 -1.389,0.389 -1.417,1.333l-0.375,36.333l-10.5,13.25l-8.875,2.209l-11.625,-9.125l0.042,-42.084c-0,-1.416 -0.695,-2.291 -2.084,-2.625c-7.791,-1.875 -31.583,0.125 -36.75,-0.791c-0.105,-0.02 -0.211,-0.035 -0.317,-0.045c-2.003,-0.189 -3.808,1.322 -3.999,3.347c-0.011,0.107 -0.016,0.215 -0.017,0.323l-0.708,105.625l-7.709,7.666l-5.875,0.042l-6.25,-6.125l-2.083,-115.583c-0.028,-1.639 -0.847,-2.598 -2.458,-2.875c-12.084,-2.195 -23.82,-5.82 -35.209,-10.875c-5.722,-2.528 -8.527,-0.681 -8.416,5.541l2,132.625l0,0.081l-6.583,6.583l-1.459,-0.164l-3,-0.708l-9.583,-11.333l-8.209,-141.25c-0.083,-1.417 -0.75,-2.459 -2,-3.125l-34.208,-17.792c-0.236,-0.122 -0.486,-0.215 -0.743,-0.279c-1.798,-0.445 -3.638,0.65 -4.077,2.425c-0.066,0.266 -0.098,0.538 -0.097,0.812c-0.027,58.945 2.792,266.375 2.792,266.375l-3.042,2.459l-10.416,-2.209l-2.917,-2.458c0,0 -9.306,-184.236 -9.583,-275.875c-0,-1.472 -0.667,-2.556 -2,-3.25l-34.209,-17.917c-0.501,-0.262 -1.059,-0.4 -1.625,-0.4c-1.913,0 -3.491,1.57 -3.5,3.484l0.084,356.791l-5.209,4.167l-9.375,-2.083l-4.541,-5.584l-8.292,-375.875c-0.083,-4.166 -1.917,-7.305 -5.5,-9.416l-21.875,-13c-3.75,-2.223 -5.639,-1.153 -5.667,3.208c-0.222,33.139 -6.208,317.417 -6.208,317.417l-0.04,0.618l-5.507,4.294l-0.62,-0.121l-6.083,-1.625l-6.333,-7.666c-0,-0 -9.889,-225 -7.75,-337.667c0.027,-1.528 -0.598,-2.708 -1.875,-3.542c-0,0 -20.611,-23.889 -26.75,-29.25c-0.302,-0.258 -0.687,-0.401 -1.085,-0.401c-0.892,0 -1.635,0.718 -1.665,1.61c-1.306,78.805 -9.709,571 -9.709,571l-2.333,2.458l-8.792,0.042l-0.084,-0l-7.917,-8.042l0.001,-0.083c0,-0 -10.43,-582.625 -9.875,-586.792c1.417,-11.125 -11.416,-21.708 -19.916,-24.958c-1.834,-0.695 -2.778,-0.056 -2.834,1.916c-2.639,100.445 -13.041,679.667 -13.041,679.667l-0,0.008l-2.625,2.625l-0.209,-0.008l-11.416,-1.083l-2.959,-3.334c0,0 -14.652,-634.291 -13.625,-711.041c0.028,-1.417 -0.625,-2.417 -1.958,-3l-18.208,-8.084c-1.723,-0.777 -2.611,-0.208 -2.667,1.709c-2.111,68.416 -15.292,916.625 -15.292,916.625l-2.041,16.75l-2.917,2.458l-9.292,0.125l-2.708,-2.75l2.542,-31.875c-0,0 -17.736,-821.5 -17.292,-933.167c0,-0.777 -0.361,-1.319 -1.083,-1.625l-23.917,-10.416c-0.067,-0.024 -0.137,-0.036 -0.208,-0.036c-0.341,-0 -0.622,0.278 -0.625,0.619c-0.084,112.833 -11.792,929.5 -11.792,929.5l-5.25,5.958l-5.583,0.709l-6.625,-5.834c-0,0 -18.042,-825.416 -17.459,-939.916c0.028,-3.445 -1.5,-5.931 -4.583,-7.459l-17.708,-8.833c-3.445,-1.722 -4.639,-0.722 -3.584,3c3.125,11.083 -13.75,1076.71 -13.75,1076.71l-5.708,5.917l-5.25,0.167l-0.023,0l-5.477,-5.229l0,-0.021c0,-0 -16.167,-990.334 -19.167,-1088.67c-0.055,-1.917 -1.014,-3.069 -2.875,-3.458l-15.75,-3.292c-2.361,-0.5 -3.541,0.458 -3.541,2.875c2,208.333 -15.5,1280.88 -15.5,1280.88l-1.25,10.917l1.375,15l-2.209,133.791l-2.833,2.709l-9.167,-0.209l-3.041,-3.125c-0,0 -15.014,-1360.19 -16.292,-1436.75c-0.056,-2.222 -1.194,-3.347 -3.417,-3.375l-15.583,-0.166c-2.444,-0.028 -3.667,1.18 -3.667,3.625c-0.25,126.166 -13.541,1328.12 -13.541,1328.12l-7.917,5.541l-1.625,-0.583l-7.958,-11.5c-0,0 -16.098,-1259.36 -16.792,-1313.17c-0.002,-0.058 -0.008,-0.117 -0.018,-0.174c-0.109,-0.584 -0.66,-0.98 -1.222,-0.875c-0.06,0.011 -0.119,0.027 -0.177,0.049l-23.75,8.292c-0.694,0.222 -1.041,0.708 -1.041,1.458c0.027,133.417 -13.084,1230.42 -13.084,1230.42l0.459,324.583l-5.292,4.875l-5.125,-0.375l-4.958,-5.291l-0.375,-37.25c-0,-0 -17.639,-1276.01 -16.917,-1487.54c0,-3.278 -1.486,-4.222 -4.458,-2.833l-16,7.333c-2.889,1.333 -4.361,3.597 -4.417,6.792c-1.806,145.861 -16.958,1288.67 -16.958,1288.67l-9.625,9.25l-1.792,-0.083l-6.125,-6.333c0,-0 -12.958,-1148.82 -13.375,-1259.88c-0.028,-1.667 -0.75,-2.084 -2.167,-1.25c-16.194,9.333 -24.333,23.236 -24.416,41.708c-0.528,122.861 -16.5,839.5 -16.5,839.5l-7.334,8.792l-4.25,0.833l-7.375,-6c0,0 -12.264,-638.069 -11.625,-815.958c0.028,-7.278 -1.93,-7.861 -5.875,-1.75c-5.027,7.777 -11.472,14.125 -19.333,19.041c-1.45,0.905 -2.334,2.499 -2.333,4.209c0.166,182.5 -11.917,766.25 -11.917,766.25l-6.958,6.125l-8.042,-1.042l-6,-6.75c0,0 -11.958,-550.014 -12.458,-699.708c-0.028,-2.945 -0.903,-9.07 -2.625,-18.375c-0.25,-1.334 -0.931,-1.625 -2.042,-0.875l-18.5,12.291c-1.147,0.784 -1.835,2.081 -1.833,3.459c0.041,11.083 -1.75,22.25 -1.834,32.75c-0.541,65.375 -17.875,959.916 -17.875,959.916l0.002,0.144l-6.75,6.75l-5.085,-2.31l-5.75,-17.709c0,0 -10.5,-861.791 -9.417,-918.333c0,-0.004 0,-0.007 0,-0.011c0,-1.623 -1.335,-2.958 -2.958,-2.958c-1.102,-0 -2.117,0.616 -2.625,1.594c-4.889,9.722 -11.75,17.792 -20.583,24.208c-1.102,0.779 -1.887,1.933 -2.209,3.25c-0.916,3.667 -1.402,8.028 -1.458,13.084c-0.806,77.472 -11.5,666.333 -11.5,666.333l-9.917,11.417l-1.708,0.208l-0.318,0.032l-6.292,-5.47l-0.015,-0.312c0,0 -11.833,-515.278 -9.417,-628.667c0.084,-5.083 2.292,-10.541 1.959,-15.25c-0.099,-1.732 -1.552,-3.104 -3.287,-3.104c-0.92,0 -1.799,0.386 -2.422,1.063l-30.25,32c-0.778,0.832 -1.223,1.93 -1.25,3.083c-1.111,57.778 -9.875,403.333 -9.875,403.333l-2.5,2.292l-14.708,-1.708l-3.208,-3.5l-9.417,-355.375c-0.167,-6.056 -2.181,-6.736 -6.042,-2.042l-26.958,32.792c-0.539,0.647 -0.847,1.468 -0.875,2.333c-5.25,98.306 -14.042,294.875 -14.042,294.875l-20.982,2.761l-0.018,-0.344l-7.291,-257.375c-0.013,-0.305 -0.081,-0.606 -0.2,-0.888c-0.536,-1.262 -1.998,-1.867 -3.24,-1.34c-0.287,0.122 -0.548,0.298 -0.769,0.519l-33.791,33.334c-0.917,0.889 -1.375,1.986 -1.375,3.291c0.083,29.709 5.089,99.933 5.089,99.933l-39.225,-16.142c0,-0 -2.823,-19.499 -2.573,-38.166c0.084,-4.777 -2.194,-6.597 -6.833,-5.458c-3.167,0.806 -7.042,3.194 -11.625,7.167c-28.389,24.639 -55.903,50.236 -82.542,76.791c-53.083,52.861 -106.93,104.931 -161.541,156.209c-31.084,29.125 -62.5,61.708 -91.459,89c-43.222,40.722 -85.972,81.944 -128.25,123.666c-5.958,5.875 -16.416,18.417 -25.416,26.542c-52.209,46.875 -101.792,97.917 -151.959,147.042c-16.416,16.041 -35.375,31.75 -50.5,46.791c-93.139,92.334 -187.555,183.348 -283.25,273.042c-20.944,19.667 -40.93,38.931 -59.958,57.792c-60.222,59.805 -120.611,119.43 -181.167,178.875c-21.333,20.916 -58.041,63.041 -90.541,85.166c-9.917,6.75 -17.75,-2 -18.709,-12.083c-0.416,-4.361 -0.639,-8.708 -0.666,-13.042c-1.334,-193.139 -1.209,-386.291 0.375,-579.458c0.208,-22.917 5,-34.792 20.291,-50.083c90.389,-90.5 168.75,-167.181 235.084,-230.042c8.041,-7.583 15.75,-9.708 24.541,-2.75c1.071,0.857 1.785,2.076 2,3.417c2.375,14.333 -0.875,30.5 -0.875,41.333c-0.166,74.972 -0.069,150.167 0.292,225.583c0.003,0.889 0.736,1.619 1.625,1.619c0.44,0 0.861,-0.178 1.167,-0.494c94.833,-96.166 190.43,-191.861 286.791,-287.083c46.042,-45.542 94.125,-88.167 139.542,-135c36.778,-37.889 74.639,-74.653 113.583,-110.292c23.473,-21.472 43.611,-40.569 60.417,-57.291c71.75,-71.334 144.403,-141.736 217.958,-211.209c18.889,-17.861 38.875,-37.152 59.959,-57.875c131.5,-129.125 259.875,-246.541 406.291,-354.958c46.834,-34.667 100.959,-65.917 151.584,-98.958c24.166,-15.75 50.375,-29.417 75.625,-44.292c23.805,-14 54.791,-27.431 92.958,-40.292c0.194,-0.083 16.208,-5.916 48.042,-17.5c28.139,-10.25 57.333,-16.68 87.583,-19.291c15.639,-1.334 31.319,-3.223 47.042,-5.667c2.347,-0.362 4.114,-2.375 4.166,-4.75c0.917,-81.833 15.084,-950.583 15.084,-950.583l6.375,-5.875l1.833,0.166l8.125,8.875c0,0 13.5,881.375 13.333,947.209c0,1.527 0.75,2.402 2.25,2.625l24.459,3.583c1.805,0.25 2.736,-0.542 2.791,-2.375c3.5,-102.028 14.334,-805.917 14.334,-805.917l5.458,-5.458l5.208,0.083l4.792,4.875c0,0 9.431,629.806 12.542,812.417c0.053,2.375 1.726,4.427 4.041,4.958l19.917,4.667c2.667,0.639 4.056,-0.403 4.167,-3.125c1.555,-38.278 14.958,-580.333 14.958,-580.333l-0.375,-4.042l7.875,-8.375l8.417,7.25c-0,0 5.972,399.764 13,599.542c0.055,1.527 0.791,2.555 2.208,3.083l23.042,8.292c0.171,0.06 0.346,0.106 0.525,0.14c1.91,0.357 3.772,-0.902 4.125,-2.789c0.034,-0.185 0.054,-0.372 0.058,-0.56c3.083,-109.833 15.125,-727.375 15.125,-727.375l-0.006,-0.317l7.875,-7.875l0.631,0.026l8.042,14.166c-0,0 2.666,584.625 8.083,745.125c0.056,1.5 0.667,2.709 1.833,3.625c7.667,5.973 16.264,9.986 25.792,12.042c0.013,0.003 0.026,0.005 0.04,0.008c1.301,0.253 2.576,-0.591 2.825,-1.87c0.004,-0.018 0.007,-0.036 0.01,-0.055c1.806,-10.666 11.333,-437.416 11.333,-437.416l8.584,-9.834l1.958,-0.208l7.875,6.292c0,-0 -0.528,321.541 3.5,459.291c0.167,5.042 1.375,8.084 6.083,10.667c8.889,4.944 16.723,10.944 23.5,18c0.731,0.761 1.741,1.192 2.796,1.192c2.057,0 3.774,-1.637 3.871,-3.692c4.917,-129.056 5.833,-387.25 5.833,-387.25l5.459,-5.542l6.166,-0.083l5.417,5.375c0,0 5.889,372.694 7.583,410.583c0.417,9.084 14.334,16.542 19.209,21.792c4.944,5.306 9.861,11.167 14.75,17.583c0.496,0.648 1.267,1.029 2.084,1.029c1.419,0 2.594,-1.151 2.624,-2.57c1.639,-87.556 1.375,-265 1.375,-265l2.208,-11.209l2.792,-2.291l4.625,-0.25l0.375,-0.011l6.708,6.677c0,0 3.167,285.459 12.792,298.459c5.722,7.722 31.333,37.208 31.333,37.208Z" style="fill-rule:nonzero;"/><path d="M4201.14,1264.89c-0.583,8.666 19.011,819.197 16.375,821.22c-9.917,7.584 -20.653,18.252 -32.208,23.03c-0.463,0.189 -0.942,0.335 -1.432,0.435c-4.256,0.865 1.515,-821.56 0.057,-844.852c-0.361,-5.861 2.389,-8.542 8.25,-8.042l2.041,0.167c4.945,0.417 7.25,3.097 6.917,8.042Z" style="fill-rule:nonzero;"/><path d="M4354.84,2017.7l-35.732,17.647c-7.834,2.556 14.237,-519.449 11.446,-731.908c0.006,-1.52 1.136,-2.812 2.625,-3l11.333,-1.416c2.444,-0.306 3.667,0.777 3.667,3.25c-0.25,67.361 13.634,713.149 6.661,715.427Z" style="fill-rule:nonzero;"/><path d="M4139.98,2128.16l-25.261,19.894c-0.835,0.391 1.223,-698.052 1.417,-724.58c0.056,-4.222 2.167,-6.153 6.333,-5.792l3.834,0.334c4.861,0.389 7.18,3.027 6.958,7.916c-3.111,66.445 8.636,701.341 6.719,702.228Z" style="fill-rule:nonzero;"/><path d="M4287.64,2049.41c-11.667,7.833 -21.583,19.062 -34.458,20.645c-1.695,0.195 4.319,-505.472 5.875,-604.833c0.027,-1.944 1.014,-2.931 2.958,-2.958l14.708,-0.25c0.014,-0.001 0.028,-0.001 0.042,-0.001c1.783,0 3.25,1.468 3.25,3.25c0,0.014 0,0.028 0,0.042c-0.333,66.334 8.875,583.271 7.625,584.105Z" style="fill-rule:nonzero;"/><path d="M4045.43,1694.68l5.25,1.625c4.389,1.389 6.694,4.375 6.916,8.959c3.75,85 16.461,460.5 15.517,461.583c-8.944,10.25 -23.603,26.217 -37.186,27.578c-0.087,0.009 1.628,-394.995 1.211,-493.62c-0.028,-5.805 2.736,-7.847 8.292,-6.125Z" style="fill-rule:nonzero;"/><path d="M3915.62,2231.99c2.917,19.375 -7.984,42.76 -36.234,36.051c-1.639,-0.388 1.278,-540.632 1.417,-568.855c0.028,-5.037 3.956,-9.257 8.958,-9.625l2.542,-0.208c8.833,-0.667 13.291,3.431 13.375,12.292c0.361,38.333 9.484,527.178 9.942,530.345Z" style="fill-rule:nonzero;"/><path d="M3825.68,1741.6c-0.861,17.083 7.958,396.917 8.291,557.667c0.028,8.25 -38.041,39.555 -38.041,31.333c-0,-104.694 3.111,-494.472 6.75,-599.417c0.333,-9.375 3.083,-13.833 10.541,-18.791c1.214,-0.804 2.639,-1.233 4.095,-1.233c2.605,0 5.026,1.372 6.364,3.608c5.791,9.708 2.5,17.541 2,26.833Z" style="fill-rule:nonzero;"/><path d="M3985.26,1780.14c0.556,1.5 0.847,3.041 0.875,4.625l15.299,419.933c-0.003,0.973 -0.448,1.894 -1.209,2.5l-41.413,32.314c-0.693,0.534 -1.543,0.823 -2.417,0.823c-2.168,0 -3.953,-1.781 -3.958,-3.948c-0.139,-65.75 6.504,-458.928 9.281,-462.789c8.292,-11.542 20.042,-3.333 23.542,6.542Z" style="fill-rule:nonzero;"/><path d="M3753.01,1980.23c-0.306,76.389 1.633,364.948 1.633,364.948c-0,1.778 -19.833,26.236 -32,25.625c-10.208,-0.5 -12.708,-4.333 -12.75,-14.542c-0.139,-28.777 -1.841,-372.489 3.492,-385.281c8.667,-20.792 39.708,-12.75 39.625,9.25Z" style="fill-rule:nonzero;"/><path d="M2362.47,2060.18c0,0 8.209,314.23 8.098,315.008c-0.195,1.5 -1,2.528 -2.417,3.083c-6.945,2.583 -14.042,3.806 -21.292,3.667c-5.583,-0.084 -7.801,-2.882 -7.583,-8.459c1.722,-44.147 1.569,-303.674 1.569,-303.674l21.625,-9.625Z" style="fill-rule:nonzero;"/><path d="M2441,2364.23c-0.624,3.183 -3.487,5.48 -6.75,5.416l-14.667,-0.416c-1.251,-0.028 -2.407,-0.669 -3.083,-1.709c-4.167,-6.444 -6.072,-243.712 -6.072,-243.712l17.5,-17.5l4.75,0l12.583,12.417c0,0 -1.886,233.295 -4.261,245.504Z" style="fill-rule:nonzero;"/><path d="M1314.21,2165.27c-0,0 41.769,-6.399 41.769,-3.45c0,0 -0.261,28.2 -0.261,28.2c0.084,94.027 2.209,321.625 2.25,341.25c0,14.666 -21.666,36.875 -33.125,48.208c-3.055,3.056 -6.083,3.014 -9.083,-0.125c-3.417,-3.583 -5.125,-8.847 -5.125,-15.792c-0.111,-125.361 -6.778,-268.008 -6.944,-392.952c-0,-1.767 8.752,-5.316 10.519,-5.339Z" style="fill-rule:nonzero;"/><path d="M1421.47,2148.31c5.5,1.028 4.348,47.43 4.375,53.041l1.125,264.625c0.024,4.414 -1.992,8.6 -5.458,11.333l-34.292,27.125c-0.532,0.426 -1.193,0.659 -1.875,0.659c-1.646,-0 -3,-1.355 -3,-3c0,-0.011 0,-0.023 0,-0.034l2.209,-308.083c0.027,-5.778 -2.334,-44.694 3.361,-43.638l33.555,-2.028Z" style="fill-rule:nonzero;"/><path d="M1495.18,2426.52c-7,6.083 -27,19.291 -35.667,15.208c-10.583,-5 -4.208,-18.417 -4.292,-26.625c-0.527,-63.028 -1.18,-126.042 -1.958,-189.042c-0.083,-6.916 2.327,-104.165 2.584,-104.094l43.306,-0.26c5.131,1.4 -0.071,92.971 -0.14,98.271l-2.542,203.75c0.002,1.055 -0.469,2.074 -1.291,2.792Z" style="fill-rule:nonzero;"/><path d="M1531.79,2159.77l36.917,13.459c1.451,0.526 4.052,210.288 4.052,210.288c0,1.5 -0.694,2.555 -2.083,3.166l-35.375,14.959c-0.686,0.291 -1.423,0.441 -2.167,0.441c-3.04,-0 -5.542,-2.502 -5.542,-5.542c0,-0.008 0,-0.016 0,-0.024c0.111,-44.139 0.125,-88.945 0.042,-134.417c-0.042,-12.083 0.198,-87.746 0.781,-100.08c0.007,-0.121 0.023,-0.241 0.047,-0.36c0.276,-1.367 3.206,-1.935 3.328,-1.89Z" style="fill-rule:nonzero;"/><path d="M1646.47,2192.85l1.005,160.793c-0.001,1.43 -0.879,2.722 -2.208,3.25l-36.5,14.5c-0.411,0.163 -0.849,0.247 -1.292,0.247c-1.919,-0 -3.498,-1.578 -3.5,-3.497l-0.755,-191.793c0,-0.008 0,-0.017 0,-0.026c0,-1.92 1.58,-3.5 3.5,-3.5c0.503,-0 1.001,0.108 1.459,0.318l36.25,16.542c1.236,0.567 2.035,1.806 2.041,3.166Z" style="fill-rule:nonzero;"/><path d="M1678.73,2234.99c4.536,2.143 24.677,-1.669 32.452,5.452c9.008,8.252 11.408,86.896 7.875,93.873c-4.375,8.625 -26.042,9.75 -34.25,8.75c-1.235,-0.147 -2.174,-1.194 -2.167,-2.416l-2.986,-100.36c-0,-1.972 -2.701,-6.132 -0.924,-5.299Z" style="fill-rule:nonzero;"/><path d="M1599.39,2618.06c-5.722,5.917 -10.667,12.348 -14.833,19.292c-3.556,5.889 -5.959,13.372 -6.417,22.5c-7.75,154.333 -8.875,292.917 -8.875,292.917l-13.333,10.166l-1.417,-0.416l-14.375,-18.209c0,0 -1.25,-185.694 -2.583,-204.5c-0.023,-0.388 -0.174,-0.755 -0.429,-1.044c-0.636,-0.719 -1.765,-0.775 -2.501,-0.123c-0.287,0.253 -0.487,0.589 -0.57,0.959c-17.792,88.083 -28.167,177.083 6.541,262.792c21.875,54.083 40.709,96.875 82.5,136.041c63.792,59.875 126.292,100.25 214.084,116.709c133.555,25.055 255.611,-0.431 366.166,-76.459c30.875,-21.208 63.792,-52.708 96.625,-84.416c91.445,-88.334 183.042,-176.528 274.792,-264.584c65.042,-62.416 125.708,-126.625 193.542,-190.333c66.833,-62.722 137.597,-131.764 212.291,-207.125c8.209,-8.333 15.667,-16.542 27.417,-17.083c10.25,-0.417 9.917,8.25 10.208,17.125c1.459,39.041 -1.208,84.25 -1.125,116.708c0.167,96.611 -0.014,168.486 -0.541,215.625c-0.042,4.667 -2.709,10.375 -6.25,14.083c-15.917,16.584 -49.473,49.945 -100.667,100.084c-63.861,62.527 -128.083,124.694 -192.667,186.5c-86.389,82.666 -172.25,165.889 -257.583,249.666c-55.25,54.25 -117.083,105.292 -184.417,143.417c-56.666,32.083 -114.416,56.306 -173.25,72.667c-54.805,15.25 -114.055,23.639 -177.75,25.166c-10.25,0.25 -22.333,-1.541 -34.708,-2.125c-129.25,-6.166 -247.722,-44.625 -355.417,-115.375c-103.208,-67.791 -188.75,-176.708 -235.625,-290.208c-43.027,-104.194 -54.361,-212.125 -34,-323.792c9.584,-52.583 30.834,-105.25 54.042,-153.916c26.708,-55.959 74.375,-108.084 118.75,-150.042c65.083,-61.5 141.25,-103.278 228.5,-125.333c12.167,-3.056 25.431,-5.25 39.792,-6.584c18.041,-1.625 36.083,-4.041 53.666,-1.541c70.042,10 122.792,50.166 177.959,90.958c1.139,0.833 1.722,1.944 1.75,3.333c0.972,29.084 -9.5,603.542 -9.5,603.542l-5.209,4.125l-8.541,-2.083l-5.5,-6.917c-0,0 -20.792,-595.917 -16.292,-610.708c1.25,-4.056 -0.236,-5.736 -4.458,-5.042l-18.917,3.167c-4.111,0.694 -6.153,3.139 -6.125,7.333c1.056,98.278 -7.417,713.5 -7.417,713.5l-1.708,2.917l-12.042,0.375l-3.375,-9.334c0,0 -15.805,-592.958 -16.666,-703.458c-0.028,-1.556 -0.806,-2.208 -2.334,-1.958l-24.125,4.083c-1.305,0.222 -1.958,1 -1.958,2.333c-0.361,113.25 -12.5,686.75 -12.5,686.75l-6.25,6l-3.208,-0.125l-7.375,-6.708c-0,0 -14.514,-596.431 -14.459,-661.625c0.001,-0.201 -0.016,-0.402 -0.052,-0.599c-0.323,-1.8 -2.089,-3.011 -3.912,-2.683c-0.196,0.035 -0.39,0.088 -0.577,0.157l-20.334,7.667c-1.472,0.555 -2.222,1.611 -2.25,3.166c-1.166,88.209 -14.583,463.75 -14.583,463.75l-18.167,21.125l-2.541,-3.041c-0,-0 -12.375,-370.82 -11.875,-442.375c0.027,-3.917 -1.584,-4.778 -4.834,-2.584l-18.5,12.625c-2.194,1.5 -3.333,3.57 -3.416,6.209l-12.959,423.125l-8.333,8.958l-2.375,0.208l-13.167,-10.958c0,0 -11.333,-362.083 -10.875,-373.292c0.111,-2.639 -0.75,-3.014 -2.583,-1.125Z" style="fill-rule:nonzero;"/><path d="M19.529,2487.32c0.125,-4.46 -3.395,-8.181 -7.854,-8.306l-3.166,-0.088c-4.459,-0.125 -8.181,3.394 -8.306,7.854l-0.2,7.164c-0.124,4.459 3.395,8.181 7.855,8.306l3.165,0.088c4.46,0.125 8.181,-3.395 8.306,-7.854l0.2,-7.164Z"/><path d="M73.561,2485.4c0.125,-4.46 -3.395,-8.181 -7.854,-8.306l-12.168,-0.34c-4.46,-0.124 -8.182,3.395 -8.306,7.855l-0.508,18.159c-0.124,4.459 3.395,8.181 7.855,8.306l12.168,0.34c4.46,0.124 8.181,-3.395 8.306,-7.855l0.507,-18.159Z"/><path d="M138.305,2478.12c0.124,-4.459 -3.395,-8.181 -7.855,-8.306l-19.483,-0.544c-4.46,-0.124 -8.181,3.395 -8.306,7.855l-1.021,36.549c-0.124,4.46 3.395,8.181 7.855,8.306l19.483,0.544c4.459,0.125 8.181,-3.395 8.306,-7.854l1.021,-36.55Z"/><path d="M205.437,2474.17c0.125,-4.459 -3.395,-8.181 -7.854,-8.306l-29.347,-0.819c-4.459,-0.125 -8.181,3.395 -8.306,7.854l-1.524,54.562c-0.124,4.459 3.395,8.181 7.855,8.306l29.346,0.819c4.46,0.125 8.182,-3.395 8.306,-7.854l1.524,-54.562Z"/><path d="M5896.83,2507.77c0,4.461 3.622,8.083 8.084,8.083l3.166,0c4.462,0 8.084,-3.622 8.084,-8.083l-0,-7.167c-0,-4.461 -3.622,-8.083 -8.084,-8.083l-3.166,-0c-4.462,-0 -8.084,3.622 -8.084,8.083l0,7.167Z"/><path d="M5842.87,2511.2c-0,4.461 3.622,8.083 8.083,8.083l12.173,0c4.461,0 8.083,-3.622 8.083,-8.083l0,-18.167c0,-4.461 -3.622,-8.083 -8.083,-8.083l-12.173,0c-4.461,0 -8.083,3.622 -8.083,8.083l-0,18.167Z"/><path d="M5778.36,2520.28c-0,4.462 3.622,8.084 8.083,8.084l19.491,-0c4.461,-0 8.083,-3.622 8.083,-8.084l0,-36.563c0,-4.462 -3.622,-8.084 -8.083,-8.084l-19.491,0c-4.461,0 -8.083,3.622 -8.083,8.084l-0,36.563Z"/><path d="M5711.36,2526.11c-0,4.461 3.622,8.083 8.083,8.083l29.358,0c4.461,0 8.083,-3.622 8.083,-8.083l0,-54.583c0,-4.461 -3.622,-8.083 -8.083,-8.083l-29.358,0c-4.461,0 -8.083,3.622 -8.083,8.083l-0,54.583Z"/><path d="M2000.39,2536c10.144,7.647 -1.769,338.545 -2.78,352.841c-0.115,1.64 -1.352,2.899 -2.78,2.827l-13.754,-0.749c-1.439,-0.062 -2.618,-1.419 -2.707,-3.117c-3.321,-80.847 -7.328,-350.001 -7.617,-370.67c-0.097,-6.317 1.889,-7.356 5.956,-3.117c8.05,8.437 13.068,13.964 23.682,21.985Z" style="fill-rule:nonzero;"/><path d="M2052.64,3071.23c0,0 -10.917,-397.458 -10.583,-492.667c-0.002,-0.261 0.045,-0.52 0.137,-0.764c0.42,-1.112 1.698,-1.674 2.832,-1.246c0.239,0.09 0.461,0.221 0.656,0.385c6.972,5.945 15.041,9.959 24.208,12.042c6.663,1.502 11.38,7.57 11.208,14.417c-1.361,49.444 -11.541,467.041 -11.541,467.041l-5.167,5.125l-7.625,-0.125l-4.125,-4.166l0,-0.042Z" style="fill-rule:nonzero;"/><path d="M2152.72,2644.93l-8.5,370.667l-2.583,3.375l-7.333,2.292l-2.084,0.313l-7.083,-6.98l-6,-388.25c-0,-0.012 -0,-0.025 -0,-0.037c-0,-1.486 1.222,-2.708 2.708,-2.708c0.534,-0 1.056,0.158 1.5,0.453l28.375,18.959c0.627,0.444 1,1.159 1,1.916Z" style="fill-rule:nonzero;"/><path d="M2199.39,3034.31c0,0 -9.028,-304.041 -7.667,-360.458c0.028,-1.361 -0.208,-2.681 -0.708,-3.958c-1.278,-3.167 -1.806,-6.445 -1.583,-9.834c0.088,-1.347 1.252,-2.401 2.625,-2.375c12.333,0.306 22.68,5.042 31.041,14.209c1.056,1.139 1.584,2.486 1.584,4.041c0.389,53.584 -6.417,354.334 -6.417,354.334l-5.708,7.416l-6.417,1.75l-6.75,-5.125Z" style="fill-rule:nonzero;"/><path d="M2284.1,2681.48c10.417,3.111 15.542,10.111 15.375,21l-2.541,154.125l-10.084,9.875l-8.5,0l-10.708,-10.708l-0.167,-164.542c-0.027,-9.806 4.667,-13.306 14.084,-10.5l2.541,0.75Z" style="fill-rule:nonzero;"/><path d="M2524.14,2773.43l-3.917,18.834l-2.791,2.75l-22.709,0.625l-3.125,-2.542l-2.958,-8.625c0,0 -1.681,-56.264 1.042,-84.458c0.047,-0.671 0.517,-1.242 1.166,-1.417l28.584,-8.042c0.163,-0.047 0.328,-0.086 0.495,-0.117c2.677,-0.486 5.282,1.335 5.773,4.033c0.03,0.166 0.052,0.333 0.065,0.501c2.139,26.056 -1.625,78.458 -1.625,78.458Z" style="fill-rule:nonzero;"/><path d="M2351.26,2893.56l-13.333,-14.541l-0.042,-181.084c-0,-0.129 0.004,-0.259 0.012,-0.388c0.208,-3.125 2.969,-5.524 6.116,-5.315c0.124,0.008 0.248,0.02 0.372,0.037l29.875,4.125c1.306,0.166 1.944,0.916 1.917,2.25l-3.167,183.625l-13.417,12.041l-8.333,-0.75Z" style="fill-rule:nonzero;"/><path d="M2417.64,2699.1l29.125,2.708c3.472,0.334 5.194,2.25 5.167,5.75c-0.25,36.028 -0.125,113.292 -0.125,113.292l-2.834,24.667l-2.708,2.541l-31.792,-6.666l-1.833,-2.959c0,0 -3.347,-89.111 -1.458,-133.75c0.002,-0.052 0.005,-0.104 0.009,-0.157c0.23,-3.214 3.084,-5.669 6.321,-5.437c0.043,0.004 0.086,0.007 0.128,0.011Z" style="fill-rule:nonzero;"/><path d="M1997.67,2889.45c0.005,-2.851 -2.306,-5.17 -5.157,-5.175l-9,-0.016c-2.852,-0.005 -5.171,2.306 -5.176,5.158l-0.26,149.038c-0.005,2.852 2.306,5.171 5.158,5.176l9,0.015c2.851,0.005 5.17,-2.306 5.175,-5.157l0.26,-149.039Z"/></svg>